<svg xmlns="http://www.w3.org/2000/svg" viewBox="-11 126.63499999999999 471.3810085449219 272"> <svg xmlns="http://www.w3.org/2000/svg" viewBox="0.5 0.5 132 137" fill="none" height="131.99999999999997" width="127.18249566813257" y="196.635" x="59" preserveAspectRatio="xMinYMin" style="overflow: visible;"><path fill-rule="evenodd" clip-rule="evenodd" d="M0.5 23C0.5 10.5736 10.5736 0.5 23 0.5H110C122.426 0.5 132.5 10.5736 132.5 23V31C132.5 32.3807 131.381 33.5 130 33.5C128.619 33.5 127.5 32.3807 127.5 31V23C127.5 13.335 119.665 5.5 110 5.5H23C13.335 5.5 5.5 13.335 5.5 23V115C5.5 124.665 13.335 132.5 23 132.5H110C119.665 132.5 127.5 124.665 127.5 115V107C127.5 105.619 128.619 104.5 130 104.5C131.381 104.5 132.5 105.619 132.5 107V115C132.5 127.426 122.426 137.5 110 137.5H23C10.5736 137.5 0.5 127.426 0.5 115V23Z" fill="url(#paint0_linear_24401_3745)" style="fill: #b34acf; fill-opacity: 1;"></path><linearGradient id="paint0_linear_24401_3745" x1="124.5" y1="8" x2="1" y2="137" gradientUnits="userSpaceOnUse" style=""><stop stop-color="#7CD0E4"></stop><stop offset="1" stop-color="#8AE0AC"></stop></linearGradient></svg> <svg x="122.591" y="244.63499969482422" viewBox="4.5 4.090000152587891 267.7900085449219 36" height="36" width="267.7900085449219" style="overflow: visible;"><g fill="#000000" fill-opacity="1" style=""><path d="M6.84 39.64L6.84 39.64Q5.89 39.64 5.20 38.97Q4.50 38.29 4.50 37.30L4.50 37.30L4.50 6.84Q4.50 5.85 5.20 5.17Q5.89 4.50 6.84 4.50L6.84 4.50Q7.83 4.50 8.50 5.17Q9.18 5.85 9.18 6.84L9.18 6.84L9.18 20.34L24.07 5.45Q24.61 4.90 25.06 4.70Q25.52 4.50 26.01 4.50L26.01 4.50Q27.13 4.50 27.63 5.17Q28.13 5.85 27.99 6.77Q27.86 7.69 27.13 8.46L27.13 8.46L15.66 19.98L27.36 35.91Q27.90 36.67 27.81 37.55Q27.72 38.43 27.18 39.04Q26.64 39.64 25.74 39.64L25.74 39.64Q24.48 39.64 23.80 38.65L23.80 38.65L12.42 23.22L9.18 26.46L9.18 37.30Q9.18 38.29 8.50 38.97Q7.83 39.64 6.84 39.64ZM61.70 39.64L41.36 39.64Q40.37 39.64 39.69 38.97Q39.02 38.29 39.02 37.30L39.02 37.30L39.02 6.84Q39.02 5.80 39.69 5.15Q40.37 4.50 41.36 4.50L41.36 4.50L61.70 4.50Q62.73 4.50 63.36 5.11Q63.99 5.71 63.99 6.70L63.99 6.70Q63.99 7.65 63.36 8.23Q62.73 8.82 61.70 8.82L61.70 8.82L43.70 8.82L43.70 19.75L56.61 19.75Q57.64 19.75 58.27 20.36Q58.91 20.97 58.91 21.91L58.91 21.91Q58.91 22.86 58.27 23.47Q57.64 24.07 56.61 24.07L56.61 24.07L43.70 24.07L43.70 35.32L61.70 35.32Q62.73 35.32 63.36 35.91Q63.99 36.49 63.99 37.44L63.99 37.44Q63.99 38.43 63.36 39.04Q62.73 39.64 61.70 39.64L61.70 39.64ZM97.69 39.64L77.36 39.64Q76.36 39.64 75.69 38.97Q75.02 38.29 75.02 37.30L75.02 37.30L75.02 6.84Q75.02 5.80 75.69 5.15Q76.36 4.50 77.36 4.50L77.36 4.50L97.69 4.50Q98.73 4.50 99.36 5.11Q99.99 5.71 99.99 6.70L99.99 6.70Q99.99 7.65 99.36 8.23Q98.73 8.82 97.69 8.82L97.69 8.82L79.69 8.82L79.69 19.75L92.61 19.75Q93.64 19.75 94.28 20.36Q94.91 20.97 94.91 21.91L94.91 21.91Q94.91 22.86 94.28 23.47Q93.64 24.07 92.61 24.07L92.61 24.07L79.69 24.07L79.69 35.32L97.69 35.32Q98.73 35.32 99.36 35.91Q99.99 36.49 99.99 37.44L99.99 37.44Q99.99 38.43 99.36 39.04Q98.73 39.64 97.69 39.64L97.69 39.64ZM133.69 39.64L113.36 39.64Q112.36 39.64 111.69 38.97Q111.02 38.29 111.02 37.30L111.02 37.30L111.02 6.84Q111.02 5.80 111.69 5.15Q112.36 4.50 113.36 4.50L113.36 4.50L133.69 4.50Q134.73 4.50 135.36 5.11Q135.99 5.71 135.99 6.70L135.99 6.70Q135.99 7.65 135.36 8.23Q134.73 8.82 133.69 8.82L133.69 8.82L115.69 8.82L115.69 19.75L128.61 19.75Q129.65 19.75 130.28 20.36Q130.91 20.97 130.91 21.91L130.91 21.91Q130.91 22.86 130.28 23.47Q129.65 24.07 128.61 24.07L128.61 24.07L115.69 24.07L115.69 35.32L133.69 35.32Q134.73 35.32 135.36 35.91Q135.99 36.49 135.99 37.44L135.99 37.44Q135.99 38.43 135.36 39.04Q134.73 39.64 133.69 39.64L133.69 39.64ZM149.35 39.64L149.35 39.64Q148.36 39.64 147.69 38.97Q147.01 38.29 147.01 37.30L147.01 37.30L147.01 6.84Q147.01 5.80 147.69 5.15Q148.36 4.50 149.35 4.50L149.35 4.50L158.35 4.50Q161.73 4.50 164.34 5.98Q166.95 7.47 168.41 10.10Q169.88 12.73 169.88 16.15L169.88 16.15Q169.88 19.44 168.41 22.00Q166.95 24.57 164.34 26.01Q161.73 27.45 158.35 27.45L158.35 27.45L151.69 27.45L151.69 37.30Q151.69 38.29 151.04 38.97Q150.39 39.64 149.35 39.64ZM151.69 8.82L151.69 23.13L158.35 23.13Q160.42 23.13 162 22.23Q163.57 21.33 164.47 19.75Q165.38 18.18 165.38 16.15L165.38 16.15Q165.38 13.99 164.47 12.35Q163.57 10.71 162 9.76Q160.42 8.82 158.35 8.82L158.35 8.82L151.69 8.82ZM202.23 39.64L181.89 39.64Q180.90 39.64 180.22 38.97Q179.55 38.29 179.55 37.30L179.55 37.30L179.55 6.84Q179.55 5.80 180.22 5.15Q180.90 4.50 181.89 4.50L181.89 4.50L202.23 4.50Q203.26 4.50 203.89 5.11Q204.52 5.71 204.52 6.70L204.52 6.70Q204.52 7.65 203.89 8.23Q203.26 8.82 202.23 8.82L202.23 8.82L184.23 8.82L184.23 19.75L197.14 19.75Q198.18 19.75 198.81 20.36Q199.44 20.97 199.44 21.91L199.44 21.91Q199.44 22.86 198.81 23.47Q198.18 24.07 197.14 24.07L197.14 24.07L184.23 24.07L184.23 35.32L202.23 35.32Q203.26 35.32 203.89 35.91Q204.52 36.49 204.52 37.44L204.52 37.44Q204.52 38.43 203.89 39.04Q203.26 39.64 202.23 39.64L202.23 39.64ZM217.89 39.64L217.89 39.64Q216.90 39.64 216.22 38.97Q215.55 38.29 215.55 37.30L215.55 37.30L215.55 6.84Q215.55 5.80 216.22 5.15Q216.90 4.50 217.89 4.50L217.89 4.50L225.99 4.50Q229.36 4.50 231.97 5.92Q234.58 7.33 236.05 9.81Q237.51 12.28 237.51 15.57L237.51 15.57Q237.51 18.63 236.05 21.01Q234.58 23.40 231.97 24.75Q229.36 26.10 225.99 26.10L225.99 26.10L220.23 26.10L220.23 37.30Q220.23 38.29 219.58 38.97Q218.92 39.64 217.89 39.64ZM236.56 39.64L236.56 39.64Q235.93 39.64 235.42 39.37Q234.90 39.10 234.54 38.52L234.54 38.52L226.44 25.47L230.98 24.16L238.36 36.04Q239.17 37.35 238.59 38.50Q238.00 39.64 236.56 39.64ZM220.23 8.82L220.23 21.78L225.99 21.78Q228.06 21.78 229.63 20.99Q231.21 20.20 232.11 18.79Q233.01 17.37 233.01 15.57L233.01 15.57Q233.01 13.59 232.11 12.06Q231.21 10.53 229.63 9.67Q228.06 8.82 225.99 8.82L225.99 8.82L220.23 8.82ZM259.65 40.09L259.65 40.09Q256.77 40.09 254.16 39.19Q251.55 38.29 249.61 36.67Q247.68 35.05 246.78 32.94L246.78 32.94Q246.33 31.99 246.80 31.18Q247.27 30.37 248.40 30.15L248.40 30.15Q249.21 29.97 250.00 30.40Q250.78 30.82 251.19 31.68L251.19 31.68Q251.73 32.80 252.97 33.75Q254.20 34.69 255.96 35.28Q257.71 35.86 259.65 35.86L259.65 35.86Q261.81 35.86 263.63 35.19Q265.45 34.51 266.58 33.23Q267.70 31.95 267.70 30.06L267.70 30.06Q267.70 27.67 265.84 25.78Q263.97 23.89 259.69 23.44L259.69 23.44Q254.11 22.90 250.92 20.16Q247.72 17.41 247.72 13.36L247.72 13.36Q247.72 10.39 249.39 8.32Q251.05 6.25 253.91 5.17Q256.77 4.09 260.28 4.09L260.28 4.09Q263.02 4.09 265.07 4.86Q267.12 5.63 268.65 6.97Q270.18 8.32 271.30 10.17L271.30 10.17Q271.94 11.16 271.82 12.04Q271.71 12.91 270.94 13.41L270.94 13.41Q270.09 13.95 269.10 13.63Q268.11 13.32 267.62 12.46L267.62 12.46Q266.89 11.16 265.86 10.26Q264.82 9.36 263.43 8.84Q262.03 8.32 260.14 8.32L260.14 8.32Q256.81 8.28 254.56 9.56Q252.31 10.84 252.31 13.50L252.31 13.50Q252.31 14.85 253.01 16.09Q253.71 17.32 255.58 18.22Q257.44 19.12 260.95 19.48L260.95 19.48Q266.31 20.02 269.30 22.75Q272.29 25.47 272.29 29.92L272.29 29.92Q272.29 32.49 271.24 34.38Q270.18 36.27 268.40 37.55Q266.63 38.83 264.35 39.46Q262.08 40.09 259.65 40.09Z" transform="translate(0, 0)"></path></g></svg></svg>