<svg xmlns="http://www.w3.org/2000/svg" viewBox="18.330001831054688 81.17573547363281 538.3399963378906 436.626397857666" height="100px" width="100px" transform="rotate(0) scale(1, 1)"> <svg x="187.5" y="151.1757354736328" xmlns="http://www.w3.org/2000/svg" preserveAspectRatio="none" height="200" width="200" fill="#c9f4e0" fill-opacity="1" style="overflow: visible;"><rect rx="50%" ry="50%" y="1" x="1" height="198" width="198" stroke-width="2" stroke="#ffffff" stroke-opacity="0" style=""/></svg> <svg xmlns="http://www.w3.org/2000/svg" xmlns:xlink="http://www.w3.org/1999/xlink" version="1.1" id="Layer_1" x="197.512" y="167.82073547363282" viewBox="62.55999755859375 154.09002685546875 361.44000244140625 334.79998779296875" enable-background="new 0 0 612 792" xml:space="preserve" height="166.71450191797626" width="179.97998046875" preserveAspectRatio="xMinYMin" style="overflow: visible;"><path fill="#fefefe" d="M424,488.89c-120.48,0-240.96,0-361.44,0c0-111.6,0-223.2,0-334.8c120.48,0,240.96,0,361.44,0   C424,265.69,424,377.29,424,488.89z M335.76,438.94c-3.17-3.43-6.36-6.83-9.49-10.3c-0.43-0.48-0.72-1.23-0.78-1.87   c-0.09-1.05-0.2-2.02-1.28-2.49c-1.16-0.5-2.2-0.07-2.87,0.84c-1.06,1.43-1.98,2.96-2.88,4.5c-1.36,2.33-2.55,4.75-3.99,7.03   c-1.62,2.56-3.49,4.95-5.14,7.49c-1.31,2.02-0.65,3.72,1.68,4.22c1.33,0.28,2.76,0.23,4.13,0.12c2.14-0.17,4.26-0.73,6.39-0.76   c4.11-0.06,8.22,0.18,12.33,0.22c1.66,0.02,3.36,0,4.98-0.31c1.43-0.27,1.83-1.15,1.34-2.52c-0.36-0.99-0.92-1.93-1.51-2.81   c-0.5-0.75-1.16-1.4-1.75-2.09c1.33-0.52,2.71-0.93,3.98-1.57c3.45-1.71,6.77-3.73,10.31-5.24c5.86-2.5,11.7-5.11,16.31-9.55   c4.82-4.64,9.4-9.57,13.72-14.69c8.13-9.62,14.59-20.3,18.92-32.19c2.63-7.2,4.24-14.68,5.75-22.17   c2.08-10.34,3.35-20.77,3.1-31.36c-0.17-7.33-1.11-14.55-2.58-21.71c-3.02-14.79-8.3-28.78-15.26-42.16   c-6.02-11.56-13.4-22.07-23-30.97c-10.47-9.7-22.45-17.04-35.51-22.66c-15.44-6.64-31.54-9.48-48.32-8.16   c-2.37,0.19-4.72,0.68-7.06,1.14c-1.87,0.37-3.01,1.49-3.03,3.79c1.12,0.09,2.3,0.34,3.45,0.26c2.14-0.15,4.26-0.57,6.4-0.72   c9.86-0.69,19.61,0.09,29.23,2.33c16.89,3.92,32.08,11.35,45.53,22.3c8.31,6.77,15.68,14.42,21.49,23.5   c4.58,7.17,8.17,14.85,11.79,22.51c3.07,6.48,5.79,13.09,7.42,20.11c2.11,9.09,3.63,18.28,4.62,27.57   c0.87,8.2,0.63,16.34-0.89,24.42c-1.29,6.85-2.75,13.66-4.27,20.46c-1.63,7.32-3.63,14.55-7.7,20.96   c-4.32,6.79-8.71,13.55-13.33,20.14c-6.15,8.76-13.96,15.75-23.55,20.61c-5.32,2.69-10.74,5.2-16.12,7.77   C336.6,435.74,335.59,436.95,335.76,438.94z M241.79,164.35c-6.92-0.1-12.14,1.35-17.16,3.62c-3.39,1.54-5.28,4.15-5.74,7.91   c-0.78,6.4-0.2,12.73,0.64,19.07c0.69,5.14,1.27,10.3,0.62,15.5c-0.61,4.9-2.62,9.04-6.73,11.9c-3.85,2.69-7.85,5.17-11.76,7.78   c-3.87,2.58-7.52,5.43-10.48,9.05c-3.61,4.42-5.71,9.63-7.41,14.99c-1.72,5.43-2.58,11.01-2.04,16.74   c0.43,4.52,1.15,9.03,1.32,13.56c0.2,5.62,0.04,11.25-0.12,16.88c-0.27,9.53-0.81,19.05-0.97,28.57   c-0.1,5.98,0.21,11.97,0.45,17.95c0.2,5.14,0.63,10.27,0.83,15.41c0.2,5.1,0.46,10.22,0.32,15.31c-0.18,6.89-0.67,13.78-1.12,20.67   c-0.35,5.45-0.93,10.89-1.24,16.35c-0.28,4.93-0.39,9.88-0.43,14.82c-0.02,2.54,0.35,5.09,0.35,7.64c0,2.91-0.31,5.82-0.29,8.73   c0.02,3.43,1.03,6.6,3.23,9.3c2.95,3.61,5.88,7.26,8.96,10.77c3.16,3.6,7.2,5.86,11.95,6.41c4.67,0.54,9.38,0.69,14.08,0.94   c5.34,0.28,10.69,0.39,16.02,0.73c7.68,0.49,15.32,0.35,22.86-1.33c7.99-1.79,15.95-3.74,23.93-5.61c6.83-1.6,12.64-4.92,17.3-10.2   c3.74-4.24,3.91-6.08,1.04-10.97c-0.71-1.21-0.87-2.4-0.31-3.75c1-2.4,1.6-4.92,1.59-7.54c-0.04-7.18-0.12-14.35-0.17-21.53   c-0.05-7.26-0.34-14.53-0.07-21.78c0.31-8.16,1.12-16.31,1.73-24.46c0.61-8.23,1.36-16.45,1.82-24.69   c0.59-10.71,0.99-21.44,1.42-32.16c0.22-5.66,0.43-11.33,0.47-16.99c0.06-7.91,0.06-15.82-0.11-23.73   c-0.17-7.57-1.4-14.98-3.89-22.16c-3.01-8.67-7.5-16.34-14.85-22.09c-3.95-3.09-8.3-5.47-12.95-7.31c-3.04-1.2-4.78-3.27-5.36-6.56   c-0.75-4.3-1.83-8.55-2.7-12.84c-0.2-1-0.25-2.06-0.16-3.07c0.28-3.05,0.84-6.09,0.98-9.15c0.22-4.82,0.18-9.64,0.25-14.46   c0.03-2.06-0.72-3.71-2.67-4.54c-1.74-0.75-3.52-1.54-5.36-1.91c-2.49-0.5-5.06-0.64-7.6-0.87   C248.31,164.87,244.37,164.56,241.79,164.35z M179.56,449.96c-1.13-1-2.4-1.51-3.93-1.49c-0.94,0.01-1.9-0.19-2.84-0.36   c-9.84-1.81-19.24-4.93-28.15-9.5c-14.26-7.32-26.4-17.27-36.36-29.82c-9.42-11.86-16.58-24.91-19.9-39.8   c-1.73-7.77-3.1-15.62-4.41-23.47c-0.96-5.75-1.27-11.58-0.95-17.42c0.44-8.21,1.22-16.38,2.54-24.5   c1.13-6.93,2.68-13.73,5.43-20.22c4.07-9.61,9.11-18.73,14.16-27.83c2.44-4.4,5.21-8.62,8.81-12.17   c6.94-6.85,14.24-13.3,21.98-19.22c8.15-6.24,17.25-10.47,27.39-12.34c5.52-1.02,11.04-2.02,16.57-3c1.77-0.31,3.16-1.01,3.53-3.27   c2.34,4.54,4.55,8.8,6.71,13.08c0.18,0.37,0.12,0.94-0.01,1.37c-0.31,1.07-0.38,2.09,0.54,2.86c1.02,0.86,2.16,0.61,3.1-0.08   c1.24-0.92,2.55-1.86,3.48-3.07c2.29-2.98,5.08-5.39,7.97-7.73c1.8-1.46,3.62-2.89,5.31-4.47c1.56-1.46,1.33-3.17-0.53-4.24   c-0.95-0.54-2.03-1.1-3.08-1.17c-5.51-0.32-10.72-1.86-15.91-3.59c-2.37-0.79-4.79-1.49-7.22-2.05c-2.14-0.49-3.28,0.61-2.91,2.76   c0.21,1.19,0.74,2.33,1.17,3.48c0.18,0.49,0.48,0.93,0.68,1.33c-1.6,0.21-3.07,0.34-4.51,0.61c-4.18,0.79-8.33,1.8-12.53,2.42   c-5.78,0.85-11.54,1.83-16.71,4.59c-5.36,2.86-10.59,6.03-15.65,9.4c-10.26,6.84-19.48,14.91-26.8,24.91   c-9.53,13.03-16.52,27.42-21.89,42.61c-3.34,9.44-5.06,19.22-5.81,29.19c-0.63,8.26-0.59,16.51,0.12,24.76   c0.68,7.95,2.02,15.8,3.76,23.59c2.67,11.93,6.95,23.2,13.38,33.64c7.33,11.89,16.68,21.96,27.47,30.75   c9.98,8.13,21.03,14.33,33.29,18.29c5.42,1.75,10.94,3.17,16.62,3.76C175.79,452.76,178.47,453.18,179.56,449.96z M389.57,324.92   c-0.47-3.59-0.62-7.26-1.48-10.75c-1.43-5.82-3.22-11.57-5.02-17.29c-1.44-4.58-3.1-9.1-4.71-13.62c-0.39-1.08-1.12-2-2.41-2.03   c-1.28-0.03-1.98,0.85-2.5,1.91c-3.54,7.2-8.06,13.77-13.31,19.79c-8.59,9.83-17.29,19.57-26.1,29.2   c-6.44,7.05-12.14,14.57-16.13,23.29c-4.18,9.15-7.18,18.62-7.89,28.73c-0.29,4.14-0.65,8.27-0.92,12.41   c-0.12,1.8,0.63,3.24,2.14,4.28c0.29,0.2,0.56,0.58,0.63,0.93c0.47,2.18,0.9,4.36,1.32,6.55c0.75,3.89,1.74,4.24,5.05,2.08   c5.06-3.31,10.14-6.62,15.34-9.71c5.09-3.03,10.47-5.58,15.5-8.71c11.55-7.18,21.16-16.39,28.19-28.14   c4.18-6.99,6.86-14.57,9.09-22.35C387.91,336.06,389.3,330.63,389.57,324.92z M167.6,396.32c0.09,0,0.18-0.01,0.28-0.01   c-0.14-2.95-0.29-5.89-0.42-8.84c-0.31-7.05-0.76-14.09-1.96-21.06c-2.37-13.73-7.47-26.34-15.4-37.8   c-5.51-7.96-12.47-14.21-21.32-18.33c-8.53-3.97-17.63-4.3-26.76-4.58c-1.4-0.04-1.98,0.61-2.02,2.12   c-0.03,1.39,0.1,2.79,0.18,4.18c0.57,9.83,1.06,19.67,1.74,29.5c0.35,5.13,1.12,10.27,3.14,15.02c2.88,6.75,6.1,13.36,9.23,20.01   c2.54,5.4,5.69,10.41,9.91,14.69c2.77,2.81,5.5,5.66,8.25,8.49c1.61,1.66,3.14,3.41,4.85,4.97c7.1,6.5,15.47,10.84,24.42,14.18   c0.96,0.36,1.97,0.63,2.98,0.79c1.13,0.18,2.14-0.27,2.51-1.38c0.48-1.45,1.1-2.97,1.07-4.46   C168.17,407.97,167.85,402.15,167.6,396.32z M353.16,267.49c-0.25-2.3-0.39-4.61-0.76-6.89c-1.23-7.44-4.37-14.09-8.75-20.16   c-0.9-1.25-2.2-2.3-3.5-3.16c-1.92-1.27-3.59-0.35-3.95,1.92c-0.19,1.21-0.37,2.46-0.84,3.58c-5.56,13.21-11.2,26.38-16.77,39.59   c-1.98,4.7-3.79,9.5-4.01,14.65c-0.14,3.25,0.15,6.53,0.39,9.78c0.17,2.38,0.47,4.76,0.9,7.11c0.29,1.6,0.77,3.23,2.66,3.77   c1.9,0.55,3.46-0.09,4.81-1.76c1.53-1.89,3.07-3.78,4.77-5.51c7.93-8.06,14.87-16.86,20.27-26.82   C351.09,278.56,353.21,273.37,353.16,267.49z M169.28,299.12c-0.65-4.83-1.25-9.62-1.93-14.38c-0.81-5.62-2.66-10.83-5.81-15.62   c-4.27-6.51-16.4-14.21-24.64-12.68c-3.06,0.57-4.27,1.67-3.75,4.74c0.32,1.89,0.69,3.77,0.85,5.67   c0.62,7.37,2.04,14.57,4.17,21.64c2.2,7.3,4.96,14.33,9.53,20.55c4.92,6.69,10.82,12.47,16.72,18.26c0.25,0.25,0.56,0.45,0.87,0.63   c1.02,0.58,1.85,0.4,2.23-0.69c0.4-1.14,0.73-2.38,0.74-3.59c0.07-7.19,0.03-14.38,0.03-21.57c0-0.91,0-1.83,0-2.77   C168.66,299.23,168.96,299.18,169.28,299.12z" style="fill: #FEFEFE; fill-opacity: 0;"/><path fill="#ffffff" d="M241.79,164.35c2.59,0.21,6.52,0.52,10.46,0.88c2.54,0.23,5.1,0.38,7.6,0.87c1.84,0.37,3.61,1.16,5.36,1.91   c1.95,0.83,2.7,2.48,2.67,4.54c-0.07,4.82-0.04,9.65-0.25,14.46c-0.14,3.06-0.69,6.09-0.98,9.15c-0.09,1.01-0.05,2.08,0.16,3.07   c0.87,4.29,1.95,8.53,2.7,12.84c0.58,3.29,2.31,5.36,5.36,6.56c4.65,1.83,9,4.22,12.95,7.31c7.35,5.75,11.85,13.42,14.85,22.09   c2.49,7.18,3.72,14.59,3.89,22.16c0.18,7.91,0.17,15.82,0.11,23.73c-0.04,5.67-0.24,11.33-0.47,16.99   c-0.43,10.72-0.82,21.45-1.42,32.16c-0.46,8.24-1.21,16.46-1.82,24.69c-0.6,8.15-1.42,16.3-1.73,24.46   c-0.27,7.25,0.02,14.52,0.07,21.78c0.05,7.18,0.12,14.35,0.17,21.53c0.02,2.62-0.59,5.14-1.59,7.54c-0.56,1.35-0.4,2.54,0.31,3.75   c2.87,4.89,2.7,6.73-1.04,10.97c-4.65,5.28-10.46,8.6-17.3,10.2c-7.98,1.86-15.94,3.82-23.93,5.61   c-7.53,1.68-15.18,1.82-22.86,1.33c-5.33-0.34-10.68-0.45-16.02-0.73c-4.7-0.25-9.41-0.4-14.08-0.94   c-4.75-0.55-8.79-2.81-11.95-6.41c-3.08-3.51-6-7.15-8.96-10.77c-2.2-2.69-3.21-5.87-3.23-9.3c-0.02-2.91,0.3-5.82,0.29-8.73   c0-2.55-0.38-5.09-0.35-7.64c0.05-4.94,0.16-9.88,0.43-14.82c0.31-5.46,0.88-10.9,1.24-16.35c0.45-6.88,0.93-13.77,1.12-20.67   c0.14-5.1-0.12-10.21-0.32-15.31c-0.2-5.14-0.63-10.27-0.83-15.41c-0.24-5.98-0.55-11.97-0.45-17.95   c0.16-9.53,0.69-19.05,0.97-28.57c0.16-5.62,0.32-11.26,0.12-16.88c-0.16-4.53-0.89-9.04-1.32-13.56   c-0.54-5.72,0.32-11.3,2.04-16.74c1.7-5.36,3.8-10.56,7.41-14.99c2.96-3.62,6.61-6.47,10.48-9.05c3.91-2.61,7.91-5.09,11.76-7.78   c4.11-2.86,6.12-7,6.73-11.9c0.65-5.21,0.07-10.36-0.62-15.5c-0.85-6.34-1.42-12.67-0.64-19.07c0.46-3.75,2.35-6.37,5.74-7.91   C229.64,165.69,234.86,164.25,241.79,164.35z M289.94,234.16l0.02,0.01c-0.91-1.03-1.74-2.14-2.73-3.07   c-4.39-4.12-9.78-6.49-15.28-8.67c-0.26-0.17-0.51-0.35-0.78-0.5c-3.08-1.74-5.15-4.26-5.95-7.75c-0.41-1.8-0.83-3.6-1.25-5.4   c-0.55-2.78-1.1-5.57-1.68-8.48c-0.42,0.32-0.75,0.53-1.03,0.8c-1.1,1.04-2.4,1.63-3.89,1.92c-2.45,0.48-4.88,1.07-7.32,1.57   c-4.2,0.86-8.45,0.95-12.73,0.8c-4.1-0.14-8.2-0.03-12.32-0.03c-0.09,1.79-0.14,3.62-0.29,5.43c-0.43,5.14-2.42,9.66-6.39,12.9   c-3.65,2.98-7.67,5.54-11.67,8.05c-4.66,2.92-9.03,6.14-12.5,10.46c-6.01,7.48-8.32,16.15-8.06,25.58   c0.14,4.81,0.8,9.62,0.87,14.43c0.1,7.46-0.01,14.93-0.2,22.4c-0.18,7.13-0.64,14.25-0.84,21.39c-0.11,3.79,0.02,7.58,0.14,11.37   c0.13,4.18,0.29,8.37,0.57,12.54c0.28,4.25,0.9,8.48,1.05,12.73c0.16,4.5,0.01,9.02-0.15,13.52c-0.14,3.98-0.47,7.95-0.77,11.92   c-0.43,5.72-0.97,11.43-1.35,17.15c-0.34,5.13-0.51,10.27-0.75,15.4c-0.07,1.45,0.19,2.86,1.32,3.82c0.81,0.68,0.91,1.42,0.82,2.32   c-0.35,3.4-0.84,6.8-1.03,10.21c-0.18,3.24-0.04,6.51-0.04,9.85c1.99-0.96,3.95-1.89,5.91-2.83c2.07-0.88,4.14-1.78,6.21-2.65   c7.66-3.21,15.59-5.51,23.86-6.35c5.07-0.51,10.18-0.61,15.28-0.77c6.95-0.22,13.86,0.3,20.74,1.23c5.18,0.7,10.35,1.52,15.51,2.36   c6.91,1.12,13.69,2.77,20.34,4.97c0.47,0.16,0.97,0.26,1.79,0.47c0.21-2,0.44-3.83,0.58-5.66c0.34-4.33,0.83-8.65,0.9-12.99   c0.24-14.89-0.39-29.8,0.52-44.68c0.3-4.96,0.72-9.92,1.22-14.87c0.54-5.3,1.38-10.56,1.83-15.87c0.46-5.56,0.64-11.14,0.88-16.71   c0.12-2.79,0.08-5.59,0.13-8.38c0.15-7.3,0.44-14.6,0.45-21.9c0.02-12.3-0.12-24.6-0.22-36.9c-0.01-1.27-0.09-2.55-0.26-3.81   c-0.67-5.08-1.96-9.99-4.05-14.68c-1.94-4.35-4.14-8.55-7.06-12.35C290.17,234.35,290.06,234.26,289.94,234.16z M263.31,190.04   c0-2.62,0-5.25,0-7.87c-0.1-1.13-0.2-2.27-0.29-3.4c-0.09-1.02-0.17-2.04-0.27-3.16c-13.43,3.31-26.88,5.22-40.66,2.65   c0.17,1.1,0.32,1.96,0.43,2.82c0.73,5.59,1.44,11.19,2.2,16.78c0.21,1.53,0.97,2.68,2.65,2.94c3.13,0.2,6.27,0.38,9.4,0.61   c4.11,0.3,8.19,0.18,12.25-0.54c3.54-0.63,7.06-1.32,10.58-2.04c0.59-0.12,1.43-0.38,1.64-0.82   C262.47,195.51,263.24,192.86,263.31,190.04z M290.71,446.74c-9.81-3.17-19.92-4.99-30.08-6.5c-5.38-0.79-10.8-1.28-16.22-1.72   c-8.97-0.73-17.9-0.15-26.74,1.51c-6.88,1.29-13.55,3.34-20.06,5.94c-3.95,1.58-7.69,3.52-11.24,6.14   c2.47,2.84,4.92,5.66,7.36,8.47c0.51,0.61,1.04,1.21,1.53,1.83c3.21,4.09,7.41,6.26,12.6,6.52c6.16,0.32,12.32,0.67,18.49,0.95   c3.58,0.17,7.18,0.13,10.76,0.36c6.16,0.41,12.26,0.03,18.3-1.12c6.85-1.3,13.66-2.79,20.48-4.23c4.58-0.97,9.13-2.07,13.17-4.6   c2.89-1.81,5.55-3.91,7.42-6.82c1.19-1.85,0.93-3.51-0.9-4.62C294.07,447.95,292.34,447.43,290.71,446.74z M224.24,173.08   c0.85,0.44,1.5,0.96,2.23,1.13c2.08,0.47,4.19,1.04,6.3,1.15c7.9,0.41,15.77,0.03,23.49-1.91c2.14-0.54,4.28-1.16,6.16-2.77   c-1.37-0.36-2.57-0.84-3.81-0.98c-2.49-0.28-5-0.44-7.5-0.53c-5.72-0.19-11.45-0.47-17.18-0.39   C230.35,168.83,227.21,170.49,224.24,173.08z" style="fill: #ffffff;"/><path fill="#fff5f5" d="M179.56,449.96c-1.09,3.22-3.77,2.8-6.11,2.56c-5.68-0.59-11.2-2.01-16.62-3.76   c-12.27-3.96-23.31-10.16-33.29-18.29c-10.79-8.79-20.14-18.86-27.47-30.75c-6.43-10.43-10.71-21.7-13.38-33.64   c-1.74-7.79-3.08-15.64-3.76-23.59c-0.7-8.24-0.74-16.49-0.12-24.76c0.76-9.98,2.48-19.75,5.81-29.19   c5.37-15.18,12.36-29.58,21.89-42.61c7.31-9.99,16.54-18.06,26.8-24.91c5.06-3.37,10.29-6.54,15.65-9.4   c5.17-2.76,10.94-3.74,16.71-4.59c4.21-0.62,8.35-1.63,12.53-2.42c1.44-0.27,2.91-0.4,4.51-0.61c-0.2-0.39-0.5-0.84-0.68-1.33   c-0.43-1.15-0.96-2.29-1.17-3.48c-0.37-2.14,0.77-3.25,2.91-2.76c2.44,0.56,4.85,1.27,7.22,2.05c5.19,1.72,10.39,3.27,15.91,3.59   c1.05,0.06,2.14,0.62,3.08,1.17c1.85,1.07,2.09,2.78,0.53,4.24c-1.69,1.58-3.51,3.02-5.31,4.47c-2.89,2.34-5.68,4.76-7.97,7.73   c-0.93,1.2-2.24,2.15-3.48,3.07c-0.94,0.69-2.08,0.94-3.1,0.08c-0.92-0.77-0.85-1.79-0.54-2.86c0.12-0.43,0.19-1,0.01-1.37   c-2.16-4.28-4.37-8.53-6.71-13.08c-0.36,2.26-1.76,2.96-3.53,3.27c-5.53,0.98-11.05,1.98-16.57,3   c-10.14,1.87-19.24,6.1-27.39,12.34c-7.74,5.92-15.05,12.37-21.98,19.22c-3.6,3.55-6.36,7.77-8.81,12.17   c-5.05,9.11-10.09,18.23-14.16,27.83c-2.75,6.49-4.3,13.29-5.43,20.22c-1.32,8.12-2.1,16.29-2.54,24.5   c-0.32,5.84-0.01,11.67,0.95,17.42c1.31,7.85,2.68,15.71,4.41,23.47c3.32,14.89,10.48,27.94,19.9,39.8   c9.96,12.55,22.1,22.5,36.36,29.82c8.9,4.57,18.31,7.69,28.15,9.5c0.94,0.17,1.89,0.37,2.84,0.36   C177.16,448.45,178.43,448.96,179.56,449.96z M187.02,202.24c2.36,4.71,4.62,9.23,6.91,13.81c3.59-3.02,7.03-5.91,10.63-8.94   C198.67,205.47,192.94,203.88,187.02,202.24z" style="fill: #fff5f5;"/><path fill="#ffffff" d="M389.57,324.92c-0.27,5.71-1.66,11.15-3.21,16.56c-2.22,7.78-4.9,15.36-9.09,22.35   c-7.04,11.76-16.64,20.96-28.19,28.14c-5.03,3.12-10.41,5.68-15.5,8.71c-5.2,3.09-10.28,6.4-15.34,9.71   c-3.31,2.17-4.31,1.81-5.05-2.08c-0.42-2.19-0.85-4.38-1.32-6.55c-0.07-0.34-0.34-0.72-0.63-0.93c-1.51-1.04-2.26-2.48-2.14-4.28   c0.27-4.14,0.62-8.27,0.92-12.41c0.71-10.1,3.71-19.58,7.89-28.73c3.99-8.72,9.68-16.24,16.13-23.29   c8.81-9.64,17.51-19.37,26.1-29.2c5.25-6.02,9.77-12.59,13.31-19.79c0.52-1.06,1.22-1.93,2.5-1.91c1.29,0.03,2.02,0.95,2.41,2.03   c1.62,4.53,3.27,9.04,4.71,13.62c1.8,5.73,3.59,11.47,5.02,17.29C388.94,317.66,389.1,321.33,389.57,324.92z M376.79,293.2   c-0.46-1.21-0.92-2.41-1.51-3.95c-0.27,0.43-0.37,0.64-0.52,0.82c-6.96,8.67-13.81,17.44-20.93,25.98   c-5.41,6.49-11.05,12.81-16.82,18.98c-6.49,6.95-12.07,14.48-16.04,23.15c-3.41,7.44-5.66,15.22-6.59,23.35   c-0.37,3.24-0.45,6.51-0.79,9.75c-0.14,1.31,0.12,2.43,0.8,3.73c0.64-1.28,1.2-2.41,1.77-3.54c1.89-3.3,3.49-6.81,5.72-9.86   c7.41-10.16,15.78-19.54,23.93-29.1c4.54-5.32,8.3-11.16,11.15-17.57c1.79-4.02,3.72-7.97,5.63-11.93   c0.37-0.77,0.93-1.49,1.52-2.12c0.8-0.87,1.78-0.65,2.75-0.24c0.92,0.39,1.41,0.99,1.25,2.03c-0.52,0.89-1.04,1.78-1.56,2.67   c-1.43,2.46-3.15,4.8-4.25,7.41c-3.56,8.47-8.22,16.23-14.15,23.23c-6.73,7.94-13.45,15.9-20.24,23.78   c-6.19,7.18-9.38,15.44-9.29,24.96c0.11-0.01,0.25,0.03,0.34-0.02c0.78-0.47,1.55-0.96,2.33-1.44c0.28-0.14,0.57-0.26,0.84-0.42   c5.58-3.28,11.04-6.79,16.77-9.79c9.29-4.87,17.8-10.67,24.82-18.56c6.43-7.23,11.71-15.14,15.2-24.2   c2.65-6.88,4.27-13.98,5.06-21.31c0.48-4.46,0.7-8.91-0.09-13.33C382.51,307.86,379.52,300.57,376.79,293.2z" style="fill: #ffffff;"/><path fill="#ffffff" d="M167.6,396.32c0.24,5.83,0.57,11.65,0.67,17.48c0.02,1.48-0.59,3.01-1.07,4.46   c-0.37,1.12-1.37,1.56-2.51,1.38c-1.01-0.16-2.02-0.43-2.98-0.79c-8.94-3.34-17.32-7.68-24.42-14.18   c-1.71-1.56-3.24-3.31-4.85-4.97c-2.75-2.83-5.48-5.68-8.25-8.49c-4.22-4.28-7.37-9.29-9.91-14.69   c-3.12-6.65-6.34-13.26-9.23-20.01c-2.03-4.75-2.79-9.89-3.14-15.02c-0.68-9.82-1.17-19.66-1.74-29.5   c-0.08-1.39-0.21-2.79-0.18-4.18c0.03-1.51,0.61-2.17,2.02-2.12c9.13,0.28,18.23,0.61,26.76,4.58   c8.85,4.12,15.81,10.37,21.32,18.33c7.93,11.46,13.03,24.07,15.4,37.8c1.2,6.98,1.65,14.01,1.96,21.06   c0.13,2.95,0.28,5.89,0.42,8.84C167.79,396.31,167.7,396.32,167.6,396.32z M160.36,400.85c0.17-0.64,0.32-1.28,0.53-1.9   c0.07-0.22,0.28-0.39,0.43-0.59c0.62,0.38,1.25,0.76,2.05,1.25c0.07-0.69,0.17-1.15,0.15-1.61c-0.13-3.74-0.33-7.48-0.41-11.22   c-0.16-6.81-0.67-13.58-1.96-20.28c-2.57-13.36-7.69-25.62-15.79-36.57c-6.84-9.24-15.49-15.9-26.95-18.39   c-3.79-0.82-7.63-1.2-11.5-1.04c-1.38,0.06-2.68,0.4-2.81,2.09c-0.01,1.2-0.07,2.4-0.01,3.59c0.29,5.29,0.77,10.57,0.88,15.86   c0.13,6.15,1.01,12.16,2.56,18.08c2.47,9.42,6.55,18.15,11.5,26.5c2.74,4.62,5.38,9.3,9.41,13.01c2.47,2.26,4.82,4.65,7.19,7.01   c1.07,1.07,2.03,2.26,3.13,3.3c5.11,4.84,11.01,8.49,17.32,11.53c1.74,0.84,3.54,1.57,5.31,2.34c0.65,0.23,1.31,0.47,2,0.71   c0-2.41,0-4.69,0-7.11c-0.47,0.26-0.81,0.45-1.15,0.63c-2.48,1.33-4.27,1.14-6.06-1c-1.31-1.57-2.6-3.26-3.44-5.11   c-5.98-13.15-11.81-26.38-17.77-39.54c-5.13-11.34-10.92-22.31-18.28-32.39c-0.86-1.18-1.58-2.45-2.36-3.68   c0.03-0.62,0.06-1.25,0.09-1.9c2.17-0.17,3.92,0.21,4.92,2.35c0.45,0.97,1.15,1.81,1.71,2.73c3.86,6.34,8.22,12.45,11.48,19.09   c6.95,14.19,13.31,28.67,19.98,43c1.78,3.83,3.83,7.54,5.76,11.31c0.32,0.37,0.65,0.74,0.97,1.11c0.24-0.44,0.54-0.86,0.7-1.33   C160.13,402.09,160.22,401.46,160.36,400.85z" style="fill: #ffffff;"/><path fill="#ffffff" d="M335.76,438.94c-0.17-1.99,0.85-3.2,2.56-4.01c5.38-2.57,10.8-5.07,16.12-7.77   c9.59-4.86,17.4-11.85,23.55-20.61c4.62-6.59,9.01-13.35,13.33-20.14c4.07-6.4,6.06-13.64,7.7-20.96   c1.52-6.8,2.98-13.61,4.27-20.46c1.52-8.08,1.76-16.22,0.89-24.42c-0.99-9.29-2.51-18.47-4.62-27.57   c-1.63-7.02-4.35-13.63-7.42-20.11c-3.63-7.66-7.22-15.34-11.79-22.51c-5.8-9.08-13.17-16.73-21.49-23.5   c-13.45-10.95-28.64-18.38-45.53-22.3c-9.62-2.23-19.38-3.02-29.23-2.33c-2.14,0.15-4.26,0.58-6.4,0.72   c-1.15,0.08-2.33-0.16-3.45-0.26c0.02-2.3,1.16-3.43,3.03-3.79c2.34-0.46,4.69-0.96,7.06-1.14c16.78-1.32,32.88,1.52,48.32,8.16   c13.06,5.62,25.04,12.96,35.51,22.66c9.6,8.89,16.98,19.4,23,30.97c6.96,13.38,12.24,27.37,15.26,42.16   c1.46,7.16,2.4,14.38,2.58,21.71c0.25,10.59-1.02,21.01-3.1,31.36c-1.51,7.49-3.12,14.96-5.75,22.17   c-4.33,11.89-10.78,22.56-18.92,32.19c-4.32,5.11-8.9,10.05-13.72,14.69c-4.61,4.44-10.45,7.05-16.31,9.55   c-3.54,1.51-6.85,3.52-10.31,5.24c-1.27,0.63-2.65,1.05-3.98,1.57C336.53,439.78,336.14,439.36,335.76,438.94z" style="fill: #eeeeff;"/><path fill="#ffffff" d="M353.16,267.49c0.05,5.88-2.07,11.08-4.79,16.1c-5.4,9.96-12.34,18.76-20.27,26.82   c-1.7,1.73-3.24,3.62-4.77,5.51c-1.35,1.67-2.91,2.31-4.81,1.76c-1.89-0.54-2.37-2.17-2.66-3.77c-0.43-2.35-0.73-4.73-0.9-7.11   c-0.24-3.25-0.52-6.53-0.39-9.78c0.22-5.15,2.02-9.95,4.01-14.65c5.57-13.2,11.21-26.38,16.77-39.59c0.47-1.11,0.65-2.37,0.84-3.58   c0.36-2.27,2.03-3.19,3.95-1.92c1.3,0.86,2.6,1.91,3.5,3.16c4.38,6.07,7.52,12.72,8.75,20.16   C352.77,262.88,352.91,265.19,353.16,267.49z M328.54,303.97c0,0-0.01,0.01-0.01,0.01c1.45-1.52,3.09-2.91,4.31-4.59   c4.57-6.32,8.85-12.83,12.51-19.73c2.17-4.09,3.76-8.32,3.56-13.04c-0.15-3.46-0.9-6.82-2.13-10.07   c-1.43-3.77-2.81-7.58-5.21-10.89c-0.54-0.87-1.07-1.75-1.71-2.79c-0.39,0.72-0.74,1.28-1,1.88c-5.02,11.65-9.88,23.37-15.09,34.93   c-3.68,8.17-6.11,16.46-4.79,25.5c0.35,2.39,0.88,4.75,1.32,7.12c0.13-0.01,0.27-0.03,0.4-0.04c0.87-1.88,0.29-3.89,0.38-5.85   c0.2-0.88,0.28-1.81,0.63-2.63c2.8-6.63,5.58-13.27,8.53-19.83c1.46-3.25,3.24-6.36,4.92-9.51c0.41-0.76,1.07-1.35,2.04-1.06   c0.94,0.28,1.64,0.82,1.58,1.95c-2.79,5.86-5.59,11.72-8.35,17.59c-2.15,4.58-4.59,9.04-5.88,13.97c0.8,0.53,0.81,0.53,1.33-0.03   c0.82-0.87,1.64-1.74,2.46-2.61C328.4,304.16,328.47,304.06,328.54,303.97z" style="fill: #ffffff;"/><path fill="#fff5f5" d="M169.28,299.12c-0.33,0.06-0.62,0.11-0.99,0.18c0,0.95,0,1.86,0,2.77c0,7.19,0.03,14.38-0.03,21.57   c-0.01,1.2-0.34,2.44-0.74,3.59c-0.38,1.09-1.21,1.26-2.23,0.69c-0.31-0.17-0.61-0.38-0.87-0.63c-5.9-5.79-11.79-11.57-16.72-18.26   c-4.57-6.22-7.33-13.25-9.53-20.55c-2.13-7.07-3.55-14.28-4.17-21.64c-0.16-1.9-0.53-3.79-0.85-5.67   c-0.52-3.07,0.69-4.17,3.75-4.74c8.24-1.53,20.37,6.17,24.64,12.68c3.14,4.79,5,10.01,5.81,15.62   C168.04,289.51,168.64,294.29,169.28,299.12z M149.57,304.73c0.08,0.16,0.17,0.32,0.25,0.48c2.05,2.69,4.09,5.39,6.17,8.06   c0.18,0.23,0.65,0.22,0.98,0.32c-0.34-1.42-0.77-2.58-1.37-3.63c-1.86-3.27-3.16-6.75-4.05-10.38c-1.9-7.77-3.72-15.56-5.57-23.34   c0.17-0.69,0.25-1.41,0.54-2.04c0.14-0.31,0.66-0.63,1.01-0.64c1.05-0.01,2.37,1.12,2.6,2.21c0.97,4.47,1.93,8.95,2.84,13.43   c1.78,8.75,5.01,17.02,8.36,25.25c0.29,1.34,0.96,2.37,2.35,2.88c0.18-3.1,0.45-6.11,0.5-9.12c0.14-7.6,0.39-15.21-0.85-22.77   c-1.21-7.37-4.12-13.79-9.72-18.85c-4-3.61-8.7-5.75-13.99-6.67c-1.31-0.23-1.96,0.36-1.98,1.68c0,0.32,0.02,0.64,0.04,0.95   c0.38,3.43,0.68,6.87,1.17,10.28c1.06,7.33,2.87,14.5,5.36,21.47c1.32,3.69,3,7.24,5.34,10.44L149.57,304.73z" style="fill: #fff5f5;"/><path fill="#ffffff" d="M335.76,438.94c0.39,0.42,0.77,0.84,1.16,1.26c0.59,0.69,1.25,1.34,1.75,2.09   c0.59,0.88,1.15,1.82,1.51,2.81c0.49,1.37,0.09,2.25-1.34,2.52c-1.62,0.31-3.32,0.33-4.98,0.31c-4.11-0.04-8.22-0.27-12.33-0.22   c-2.13,0.03-4.25,0.59-6.39,0.76c-1.37,0.11-2.8,0.16-4.13-0.12c-2.33-0.5-2.99-2.2-1.68-4.22c1.65-2.54,3.52-4.93,5.14-7.49   c1.44-2.27,2.63-4.7,3.99-7.03c0.9-1.54,1.82-3.07,2.88-4.5c0.67-0.91,1.71-1.34,2.87-0.84c1.08,0.47,1.19,1.43,1.28,2.49   c0.05,0.65,0.34,1.4,0.78,1.87C329.4,432.11,332.59,435.51,335.76,438.94z M333.16,443.07c-3.5-3.87-6.85-7.58-10.27-11.37   c-2.62,3.81-5.17,7.54-7.8,11.37C321.16,443.07,327.05,443.07,333.16,443.07z" style="fill: #ffffff;"/><path fill="#29bdd7" d="M290.29,234.44c2.92,3.79,5.13,8,7.06,12.35c2.09,4.69,3.38,9.6,4.05,14.68c0.17,1.26,0.25,2.54,0.26,3.81   c0.1,12.3,0.24,24.6,0.22,36.9c-0.01,7.3-0.3,14.6-0.45,21.9c-0.06,2.79-0.02,5.59-0.13,8.38c-0.24,5.57-0.41,11.15-0.88,16.71   c-0.44,5.3-1.29,10.57-1.83,15.87c-0.5,4.95-0.92,9.91-1.22,14.87c-0.91,14.88-0.28,29.79-0.52,44.68   c-0.07,4.33-0.57,8.66-0.9,12.99c-0.14,1.84-0.37,3.67-0.58,5.66c-0.82-0.21-1.31-0.31-1.79-0.47c-6.65-2.21-13.43-3.85-20.34-4.97   c-5.16-0.84-10.33-1.66-15.51-2.36c-6.88-0.92-13.79-1.44-20.74-1.23c-5.1,0.16-10.21,0.26-15.28,0.77   c-8.27,0.83-16.2,3.14-23.86,6.35c-2.08,0.87-4.14,1.76-6.21,2.65c0.11-1.31,0.2-2.62,0.33-3.93c0.26-2.58,0.59-5.15,0.79-7.73   c0.04-0.55-0.22-1.29-0.6-1.67c-1.25-1.24-1.6-2.7-1.5-4.37c0.23-3.7,0.45-7.4,0.63-11.1c0.15-3.11,0.16-6.23,0.38-9.33   c0.31-4.37,0.78-8.73,1.13-13.1c0.3-3.82,0.66-7.64,0.73-11.46c0.1-5.74,0.12-11.49-0.13-17.23c-0.21-4.89-1.05-9.76-1.24-14.65   c-0.24-6.5-0.22-13.01-0.11-19.51c0.11-6.38,0.51-12.76,0.7-19.14c0.17-5.75,0.32-11.5,0.29-17.25c-0.03-4.35-0.21-8.7-0.59-13.03   c-0.55-6.08-0.66-12.1,0.75-18.08c2.44-10.39,8.69-17.94,17.56-23.54c3.34-2.11,6.71-4.18,10.01-6.34   c7.1-4.67,10.46-11.28,10.12-19.78c-0.06-1.42,0.05-1.57,1.54-1.56c3.99,0.04,7.99,0.01,11.97,0.22c6.71,0.35,13.16-1.07,19.6-2.64   c0.42,1.8,0.84,3.6,1.25,5.4c0.8,3.5,2.86,6.01,5.95,7.75c0.27,0.15,0.52,0.33,0.78,0.5c0.18,0.39,0.34,0.8,0.55,1.18   c1.64,2.79,4.31,4.21,7.13,5.53c3.2,1.49,6.31,3.16,9.47,4.75c0.27,0.13,0.57,0.2,0.86,0.29c0,0-0.02-0.01-0.02-0.01   C290.06,234.26,290.17,234.35,290.29,234.44z M290.35,353.08l-0.05-0.04c0.4-0.28,1.05-0.5,1.15-0.86   c0.89-3.06,1.92-6.11,1.54-9.39c0.39-3.22-0.09-6.31-1.64-9.16c-2.52-4.61-5.11-9.19-7.72-13.75c-0.86-1.51-2.08-1.7-3.32-0.47   c-3.71,3.67-7.85,6.74-12.24,9.55c-1.2,0.76-1.96,2.23-2.84,3.44c-0.79,1.09-0.56,2.11,0.29,3.15c1.01,1.23,1.94,2.54,2.77,3.89   c2.54,4.1,5.02,8.24,7.52,12.36c0.15,0.25,0.28,0.52,0.49,0.91c-3.31,0.41-6.48,0.79-9.64,1.19c-1.12,0.14-1.56-0.38-1.7-1.46   c-0.42-3.16-0.89-6.32-1.42-9.46c-0.08-0.46-0.5-1.08-0.9-1.21c-0.4-0.13-1.13,0.12-1.44,0.46c-0.93,1.03-1.84,2.11-2.54,3.3   c-2.29,3.92-4.38,7.96-6.74,11.83c-1.15,1.88-2.69,3.54-4.16,5.2c-1.01,1.14-1.03,2.26,0.08,3.32c0.86,0.82,1.7,1.68,2.43,2.62   c3.3,4.2,6.1,8.8,10.14,12.4c0.41,0.36,0.69,0.88,0.99,1.34c0.87,1.35,1.78,1.66,3.36,1.11c0.33,0.25,0.65,0.5,0.98,0.75   c0.14-0.03,0.28-0.06,0.41-0.09c0-1.17,0-2.34,0-3.51c0.02-0.24,0.04-0.49,0.06-0.73c0.69-1.76,2.05-2.33,3.85-2.41   c3.96-0.17,7.58-1.34,10.23-4.43c1.42-1.64,2.59-3.52,3.73-5.38c1.77-2.89,3.43-5.84,5.09-8.79c0.45-0.8,0.74-1.7,1.18-2.74   c-0.7,0.12-1.11,0.2-1.53,0.27c0.47-0.97,0.94-1.95,1.41-2.92C290.24,353.27,290.29,353.17,290.35,353.08z M220.18,376.61   l-0.01-0.06c0.81,0.35,1.58,0.87,2.42,1.02c3.91,0.71,7.83,1.43,11.77,1.92c2.51,0.31,5.07,0.36,7.59,0.25   c1.57-0.07,1.73-0.52,1.63-2.16c0.02-0.76,0.1-1.52,0.05-2.27c-0.12-1.79-0.31-3.58-0.47-5.36c-0.4-4.53-0.78-9.06-1.19-13.59   c-0.12-1.34-0.8-2.06-2.1-2.22c-1.78-0.22-3.57-0.4-5.36-0.52c-4.97-0.33-9.95-0.62-14.93-0.93c1.79-2.97,3.57-5.94,5.36-8.9   c2.05,0.87,4.11,1.71,6.13,2.62c1.46,0.65,2.4,0.1,2.22-1.5c-0.12-1.09-0.29-2.29-0.85-3.18c-3.03-4.87-6.17-9.67-9.3-14.48   c-0.39-0.6-0.96-1.07-1.41-1.63c-0.7-0.86-1.57-1.16-2.65-0.99c-5.48,0.83-10.98,0.77-16.49,0.44c-2.1-0.13-4.22-0.1-6.32,0.06   c-0.55,0.04-1.14,0.76-1.49,1.31c-0.09,0.14,0.56,0.94,1.01,1.22c1.89,1.18,3.84,2.28,5.76,3.41c0.86,0.51,0.98,1.16,0.35,1.96   c-0.81,1.04-1.67,2.05-2.38,3.15c-1.68,2.63-2.57,5.47-1.98,8.63c0.88,4.68,3.49,8.61,5.76,12.63c2.53,4.47,5.59,8.63,8.35,12.97   c1.93,3.03,4.22,5.5,8.01,6.03C219.84,376.5,220.01,376.56,220.18,376.61z M247.25,325.6c-0.32,0.3-0.65,0.61-1.25,1.18   c1.47,0,2.57,0.01,3.67,0c5.58-0.07,11.16-0.08,16.7,0.76c1.2,0.18,2.1,0.1,2.73-1.04c3.06-5.53,5.53-11.31,7.23-17.4   c0.09-0.32-0.23-0.75-0.36-1.14c0.33-0.8,0.6-1.64,1-2.41c0.52-0.98,0.57-1.95-0.07-2.82c-0.63-0.85-1.6-1.06-2.59-0.71   c-1.57,0.55-3.1,1.18-4.72,1.81c-0.37-0.54-0.81-1.11-1.17-1.73c-2.3-4.01-5.89-6.24-10.21-7.55c-2.66-0.8-5.37-0.7-8.07-0.63   c-4.58,0.11-9.18,0.1-13.73,0.55c-2.78,0.27-5.48,1.33-8.23,1.99c-2.4,0.58-4.44,1.76-6.14,3.51c-0.78,0.8-1.56,1.63-2.15,2.56   c-2.84,4.43-5.63,8.88-8.4,13.35c-0.8,1.3-0.47,2.5,0.77,2.97c2.04,0.79,4.12,1.5,6.17,2.27c1.17,0.44,2.35,0.9,3.48,1.44   c2.22,1.07,4.41,2.2,6.62,3.3c0.13,0.06,0.26,0.12,0.38,0.18l-0.01-0.07c0.89,0.41,1.77,0.86,2.69,1.22c1.1,0.43,1.84,0.07,2.43-1   c3.1-5.6,6.25-11.17,9.4-16.74c0.42-0.73,0.54-1.39-0.02-2.07c0.12-0.22,0.24-0.44,0.43-0.79c1.87,2.59,3.67,5.07,5.45,7.57   c0.96,1.35,0.91,1.64-0.41,2.63c-2.46,1.84-4.94,3.65-7.35,5.55c-0.41,0.33-0.73,1.06-0.7,1.58c0.02,0.35,0.69,0.86,1.14,0.94   C243.71,325.18,245.48,325.36,247.25,325.6z" style="fill: #29BDD7;"/><path fill="#0190c6" d="M193.73,460.58c-2.44-2.81-4.89-5.63-7.36-8.47c3.54-2.62,7.29-4.56,11.24-6.14   c6.51-2.6,13.18-4.65,20.06-5.94c8.84-1.66,17.77-2.24,26.74-1.51c5.42,0.44,10.85,0.92,16.22,1.72c10.16,1.5,20.27,3.32,30.08,6.5   c-0.42,0.67-0.76,1.41-1.27,2c-3.77,4.43-8.54,7.36-14.14,8.7c-7.78,1.87-15.65,3.39-23.46,5.14c-7.87,1.77-15.83,1.87-23.82,1.55   c-7.69-0.31-15.38-0.79-23.07-1.13C201.06,462.83,197.22,462.57,193.73,460.58z" style="fill: #0190C6;"/><path fill="#f5f6f6" d="M263.97,208.78c-6.44,1.57-12.89,3-19.6,2.64c-3.98-0.21-7.98-0.18-11.97-0.22   c-1.48-0.01-1.59,0.13-1.54,1.56c0.33,8.49-3.02,15.11-10.12,19.78c-3.3,2.17-6.67,4.24-10.01,6.34   c-8.87,5.6-15.12,13.15-17.56,23.54c-1.41,5.98-1.29,12.01-0.75,18.08c0.39,4.33,0.57,8.68,0.59,13.03   c0.04,5.75-0.12,11.5-0.29,17.25c-0.19,6.38-0.59,12.75-0.7,19.14c-0.11,6.5-0.13,13.01,0.11,19.51c0.18,4.89,1.02,9.76,1.24,14.65   c0.25,5.73,0.23,11.49,0.13,17.23c-0.06,3.82-0.43,7.64-0.73,11.46c-0.34,4.37-0.82,8.73-1.13,13.1c-0.22,3.1-0.23,6.22-0.38,9.33   c-0.18,3.7-0.4,7.4-0.63,11.1c-0.1,1.67,0.24,3.13,1.5,4.37c0.39,0.38,0.65,1.12,0.6,1.67c-0.2,2.58-0.53,5.15-0.79,7.73   c-0.13,1.31-0.22,2.62-0.33,3.93c-1.96,0.94-3.92,1.88-5.91,2.83c0-3.35-0.14-6.61,0.04-9.85c0.19-3.41,0.68-6.81,1.03-10.21   c0.09-0.89-0.01-1.64-0.82-2.32c-1.14-0.96-1.39-2.36-1.32-3.82c0.25-5.13,0.42-10.27,0.75-15.4c0.37-5.72,0.92-11.43,1.35-17.15   c0.3-3.97,0.62-7.94,0.77-11.92c0.16-4.5,0.31-9.02,0.15-13.52c-0.15-4.25-0.76-8.48-1.05-12.73c-0.28-4.18-0.44-8.36-0.57-12.54   c-0.12-3.79-0.24-7.59-0.14-11.37c0.2-7.13,0.66-14.25,0.84-21.39c0.19-7.46,0.3-14.93,0.2-22.4c-0.07-4.81-0.73-9.61-0.87-14.43   c-0.27-9.43,2.05-18.1,8.06-25.58c3.47-4.32,7.83-7.54,12.5-10.46c4-2.51,8.02-5.07,11.67-8.05c3.97-3.24,5.96-7.76,6.39-12.9   c0.15-1.81,0.2-3.64,0.29-5.43c4.12,0,8.22-0.11,12.32,0.03c4.28,0.15,8.53,0.06,12.73-0.8c2.45-0.5,4.87-1.09,7.32-1.57   c1.49-0.29,2.79-0.88,3.89-1.92c0.28-0.27,0.61-0.48,1.03-0.8C262.87,203.21,263.42,206,263.97,208.78z" style="fill: #F5F6F6;"/><path fill="#f5f5f6" d="M193.73,460.58c3.48,1.99,7.33,2.25,11.22,2.42c7.69,0.34,15.38,0.83,23.07,1.13   c7.99,0.32,15.95,0.22,23.82-1.55c7.81-1.76,15.68-3.27,23.46-5.14c5.6-1.34,10.38-4.27,14.14-8.7c0.51-0.6,0.85-1.33,1.27-2   c1.63,0.69,3.36,1.21,4.86,2.11c1.83,1.11,2.09,2.77,0.9,4.62c-1.87,2.91-4.53,5.01-7.42,6.82c-4.04,2.52-8.59,3.63-13.17,4.6   c-6.82,1.45-13.63,2.93-20.48,4.23c-6.04,1.15-12.14,1.53-18.3,1.12c-3.58-0.24-7.18-0.2-10.76-0.36   c-6.16-0.28-12.33-0.63-18.49-0.95c-5.19-0.27-9.39-2.43-12.6-6.52C194.77,461.79,194.24,461.19,193.73,460.58z" style="fill: #F5F5F6;"/><path fill="#8fc541" d="M263.02,178.77c0.1,1.13,0.2,2.27,0.29,3.4c0,2.62,0,5.25,0,7.87c-0.07,2.82-0.85,5.47-2.06,7.97   c-0.21,0.44-1.05,0.7-1.64,0.82c-3.52,0.72-7.05,1.41-10.58,2.04c-4.05,0.72-8.14,0.84-12.25,0.54c-3.13-0.23-6.27-0.41-9.4-0.61   c-0.86-6.6-1.71-13.21-2.58-19.89c2.29,0.32,4.52,0.63,6.75,0.94c-0.52,0.36-1.11,0.66-1.56,1.09c-0.44,0.42-0.96,0.93-1.08,1.48   c-0.68,2.96-1.16,5.91-0.44,8.98c0.37,1.61,1.03,2.62,2.73,2.78c0.14,0.45,0.22,0.93,0.42,1.36c0.32,0.68,1.99,1.4,2.59,1.04   c0.71-0.42,1.45-1,1.1-2.01c-0.9-2.63-0.74-5.3-0.16-7.92c0.36-1.63-0.09-2.84-1.09-4.01c-0.43,0.22-0.82,0.42-1.21,0.62   c0.21-1.39-0.72-2.34-1.32-3.42c0.28,0,0.56-0.02,0.83,0c5.1,0.33,10.2,0.34,15.26-0.42C252.77,180.67,257.89,179.67,263.02,178.77   z M249.85,193.25c0.32,1.04,0.64,2.08,0.99,3.19c1.35-0.59,2.49-1.02,2.58-2.5c0.11-1.83,0.28-3.66,0.26-5.5   c-0.01-0.83-0.26-1.74-0.68-2.44c-0.16-0.26-1.13-0.03-1.74-0.02c-0.12-0.7-0.2-1.42-0.4-2.1c-0.08-0.27-0.42-0.6-0.69-0.64   c-1.67-0.28-3.13,0.72-3.12,2.42c0.01,2.2,0.33,4.4,0.6,6.59c0.07,0.58,0.48,1.11,0.74,1.67   C248.99,193.65,249.42,193.45,249.85,193.25z M240.8,185.94c-0.55-1.07-1.1-2.14-1.82-3.55c-0.86,1.1-1.92,1.85-2,2.69   c-0.23,2.51-0.19,5.07-0.02,7.59c0.1,1.56,1.52,2.85,2.76,2.98c0.39,0.63,0.75,1.29,1.19,1.9c0.64,0.89,1.63,0.83,2.34,0.34   c0.45-0.31,0.74-1.2,0.69-1.8c-0.09-1.26-0.46-2.49-0.71-3.74c-0.12-0.62-0.49-1.35-0.3-1.85c0.83-2.1-0.19-3.55-1.44-5.05   C241.24,185.63,241.02,185.79,240.8,185.94z" style="fill: #8FC541;"/><path fill="#f4f4f5" d="M224.24,173.08c2.97-2.59,6.1-4.25,9.7-4.3c5.72-0.08,11.45,0.2,17.18,0.39c2.51,0.08,5.01,0.25,7.5,0.53   c1.24,0.14,2.44,0.61,3.81,0.98c-1.88,1.61-4.03,2.23-6.16,2.77c-7.72,1.94-15.58,2.32-23.49,1.91c-2.12-0.11-4.22-0.68-6.3-1.15   C225.74,174.04,225.1,173.52,224.24,173.08z" style="fill: #F4F4F5;"/><path fill="#f8f9f6" d="M263.02,178.77c-5.13,0.9-10.25,1.9-15.4,2.67c-5.06,0.76-10.16,0.75-15.26,0.42c-0.28-0.02-0.56,0-0.83,0   c0,0,0.02,0.01,0.02,0.01c-2.23-0.31-4.46-0.62-6.75-0.94c0.87,6.69,1.72,13.29,2.58,19.89c-1.68-0.26-2.44-1.41-2.65-2.94   c-0.76-5.59-1.47-11.19-2.2-16.78c-0.11-0.86-0.26-1.72-0.43-2.82c13.78,2.57,27.23,0.66,40.66-2.65   C262.85,176.73,262.93,177.75,263.02,178.77z" style="fill: #F8F9F6;"/><path fill="#f3f4f3" d="M289.96,234.17c-0.29-0.1-0.59-0.16-0.86-0.29c-3.16-1.58-6.27-3.25-9.47-4.75   c-2.82-1.31-5.49-2.74-7.13-5.53c-0.22-0.37-0.37-0.78-0.55-1.18c5.5,2.18,10.89,4.55,15.28,8.67   C288.22,232.03,289.05,233.14,289.96,234.17z" style="fill: #F3F4F3;"/><path fill="#95b66b" d="M263.31,190.04c0-2.62,0-5.25,0-7.87C263.31,184.8,263.31,187.42,263.31,190.04z" style="fill: #95B66B;"/><path fill="#f3f4f3" d="M290.29,234.44c-0.12-0.09-0.23-0.19-0.35-0.28C290.06,234.26,290.17,234.35,290.29,234.44z" style="fill: #F3F4F3;"/><path fill="#40bdd6" d="M187.02,202.24c5.92,1.64,11.64,3.23,17.55,4.87c-3.61,3.03-7.05,5.93-10.63,8.94   C191.64,211.47,189.38,206.95,187.02,202.24z" style="fill: #40BDD6;"/><path fill="#8fc641" d="M368.13,322.67c0.16-1.03-0.33-1.64-1.25-2.03c-0.98-0.41-1.95-0.63-2.75,0.24   c-0.59,0.64-1.14,1.35-1.52,2.12c-1.92,3.96-3.85,7.91-5.63,11.93c-2.86,6.42-6.61,12.26-11.15,17.57   c-8.16,9.55-16.52,18.94-23.93,29.1c-2.23,3.05-3.83,6.56-5.72,9.86c0.48-4.19,0.7-8.43,1.47-12.57   c2.84-15.26,9.72-28.55,20.37-39.8c11.02-11.64,21.29-23.91,31.29-36.41c2.51-3.14,4.99-6.32,7.49-9.47   c2.72,7.37,5.72,14.66,7.11,22.45c0.79,4.42,0.57,8.87,0.09,13.33c-0.79,7.33-2.41,14.44-5.06,21.31   c-3.49,9.06-8.77,16.97-15.2,24.2c-7.02,7.89-15.53,13.69-24.82,18.56c-5.73,3-11.19,6.51-16.77,9.79   c-0.27,0.16-0.56,0.28-0.84,0.42c0.48-6.57,2.52-12.64,6.59-17.79c5.69-7.2,11.48-14.33,17.58-21.17   c6.22-6.97,12.06-14.15,16.24-22.54c2.55-5.13,4.53-10.54,8.04-15.17C371.39,324.42,370.8,323.29,368.13,322.67z" style="fill: #8FC641;"/><path fill="#f4f5f3" d="M376.79,293.2c-2.5,3.16-4.98,6.33-7.49,9.47c-10,12.51-20.27,24.78-31.29,36.41   c-10.65,11.25-17.53,24.54-20.37,39.8c-0.77,4.14-1,8.38-1.47,12.57c-0.56,1.13-1.13,2.26-1.77,3.54c-0.68-1.29-0.94-2.41-0.8-3.73   c0.34-3.24,0.42-6.51,0.79-9.75c0.93-8.13,3.18-15.91,6.59-23.35c3.97-8.67,9.54-16.2,16.04-23.15   c5.77-6.18,11.4-12.49,16.82-18.98c7.12-8.54,13.97-17.31,20.93-25.98c0.14-0.18,0.25-0.39,0.52-0.82   C375.87,290.78,376.33,291.99,376.79,293.2z" style="fill: #F4F5F3;"/><path fill="#f4f5f3" d="M368.13,322.67c2.68,0.63,3.26,1.75,1.63,3.91c-3.51,4.64-5.49,10.05-8.04,15.17   c-4.18,8.39-10.03,15.57-16.24,22.54c-6.1,6.84-11.89,13.98-17.58,21.17c-4.07,5.15-6.11,11.22-6.59,17.79   c-0.78,0.48-1.55,0.97-2.33,1.44c-0.09,0.05-0.23,0.02-0.34,0.02c-0.09-9.52,3.1-17.77,9.29-24.96   c6.79-7.89,13.51-15.84,20.24-23.78c5.93-7,10.59-14.77,14.15-23.23c1.1-2.6,2.82-4.95,4.25-7.41   C367.09,324.44,367.61,323.56,368.13,322.67z" style="fill: #F4F5F3;"/><path fill="#74c168" d="M158.25,402.89c-1.93-3.77-3.98-7.47-5.76-11.31c-6.67-14.33-13.02-28.81-19.98-43   c-3.26-6.64-7.61-12.75-11.48-19.09c-0.56-0.92-1.26-1.76-1.71-2.73c-0.99-2.15-2.75-2.52-4.92-2.35c-0.03,0.66-0.06,1.28-0.09,1.9   c-0.59,0-1.18,0-2.15,0c0.31,1.23,0.29,2.57,0.92,3.41c8.14,10.71,14.41,22.48,19.93,34.67c5.89,13.03,11.64,26.13,17.58,39.14   c0.97,2.13,2.5,4.07,4.04,5.87c1.46,1.72,3.03,1.83,5.09,0.87c0.52-0.24,1.04-0.52,1.65-0.82c0,1.55,0,2.94,0,4.34   c-1.77-0.78-3.56-1.5-5.31-2.34c-6.3-3.04-12.21-6.7-17.32-11.53c-1.1-1.04-2.05-2.23-3.13-3.3c-2.38-2.36-4.73-4.75-7.19-7.01   c-4.03-3.7-6.68-8.39-9.41-13.01c-4.95-8.34-9.03-17.08-11.5-26.5c-1.55-5.92-2.43-11.94-2.56-18.08   c-0.11-5.29-0.6-10.57-0.88-15.86c-0.06-1.19,0-2.39,0.01-3.59c1.51-0.02,3.02-0.09,4.53-0.04c12.03,0.42,22.17,5.14,30.23,13.96   c12.01,13.13,18.51,28.9,21.01,46.35c0.84,5.86,0.96,11.83,1.32,17.76c0.16,2.58,0.09,5.17,0.13,7.75   c-0.15,0.19-0.36,0.37-0.43,0.59c-0.21,0.62-0.36,1.27-0.53,1.9c-0.41-0.23-0.82-0.46-1.27-0.7   C158.8,401.11,158.53,402,158.25,402.89z" style="fill: #74C168;"/><path fill="#f2f3f2" d="M161.32,398.36c-0.04-2.59,0.03-5.18-0.13-7.75c-0.36-5.93-0.48-11.9-1.32-17.76   c-2.5-17.45-9-33.22-21.01-46.35c-8.07-8.82-18.21-13.53-30.23-13.96c-1.51-0.05-3.02,0.02-4.53,0.04   c0.13-1.69,1.43-2.03,2.81-2.09c3.87-0.16,7.71,0.22,11.5,1.04c11.46,2.49,20.11,9.15,26.95,18.39   c8.1,10.95,13.23,23.21,15.79,36.57c1.29,6.7,1.8,13.47,1.96,20.28c0.09,3.74,0.28,7.48,0.41,11.22c0.02,0.46-0.08,0.92-0.15,1.61   C162.57,399.13,161.94,398.74,161.32,398.36z" style="fill: #F2F3F2;"/><path fill="#f2f3f2" d="M161.39,413.81c0-1.4,0-2.79,0-4.34c-0.61,0.31-1.12,0.58-1.65,0.82c-2.06,0.96-3.63,0.85-5.09-0.87   c-1.53-1.81-3.06-3.74-4.04-5.87c-5.94-13.01-11.69-26.11-17.58-39.14c-5.52-12.2-11.79-23.97-19.93-34.67   c-0.64-0.84-0.61-2.18-0.92-3.41c0.97,0,1.56,0,2.15,0c0.78,1.23,1.5,2.51,2.36,3.68c7.36,10.08,13.16,21.05,18.28,32.39   c5.95,13.17,11.78,26.39,17.77,39.54c0.84,1.85,2.13,3.54,3.44,5.11c1.79,2.14,3.57,2.33,6.06,1c0.34-0.18,0.68-0.37,1.15-0.63   c0,2.42,0,4.7,0,7.11C162.69,414.27,162.04,414.04,161.39,413.81z" style="fill: #F2F3F2;"/><path fill="#f2f3f2" d="M158.25,402.89c0.27-0.89,0.55-1.78,0.84-2.74c0.45,0.25,0.86,0.48,1.27,0.7   c-0.14,0.61-0.23,1.23-0.44,1.82c-0.16,0.47-0.46,0.89-0.7,1.33C158.9,403.63,158.58,403.26,158.25,402.89z" style="fill: #F2F3F2;"/><path fill="#75c068" d="M338.76,275.32c0.06-1.12-0.64-1.67-1.58-1.95c-0.98-0.29-1.64,0.31-2.04,1.06   c-1.68,3.15-3.46,6.26-4.92,9.51c-2.95,6.56-5.73,13.21-8.53,19.83c-0.35,0.82-0.43,1.75-0.63,2.63c-0.06-0.23-0.14-0.46-0.16-0.69   c-0.6-6.43,0.23-12.66,2.76-18.6c4.6-10.81,9.26-21.6,13.91-32.39c1.31-3.03,2.67-6.05,4-9.07c2.4,3.31,3.78,7.11,5.21,10.89   c1.23,3.24,1.98,6.6,2.13,10.07c0.21,4.71-1.39,8.94-3.56,13.04c-3.66,6.91-7.94,13.41-12.51,19.73c-1.22,1.69-2.86,3.07-4.31,4.59   c0.11-0.41,0.16-0.84,0.34-1.22c3.82-8.06,7.65-16.12,11.48-24.17C341.31,276.58,340.93,275.77,338.76,275.32z" style="fill: #75C068;"/><path fill="#f3f4f3" d="M341.57,245.67c-1.33,3.02-2.69,6.03-4,9.07c-4.65,10.79-9.31,21.58-13.91,32.39   c-2.53,5.94-3.36,12.17-2.76,18.6c0.02,0.23,0.11,0.46,0.16,0.69c-0.08,1.95,0.49,3.96-0.38,5.85c-0.13,0.01-0.27,0.03-0.4,0.04   c-0.45-2.37-0.97-4.74-1.32-7.12c-1.32-9.04,1.11-17.33,4.79-25.5c5.21-11.56,10.07-23.28,15.09-34.93c0.26-0.6,0.62-1.16,1-1.88   C340.49,243.92,341.03,244.79,341.57,245.67z" style="fill: #F3F4F3;"/><path fill="#f3f4f3" d="M338.76,275.32c2.17,0.45,2.55,1.26,1.59,3.27c-3.84,8.05-7.67,16.11-11.48,24.17   c-0.18,0.38-0.23,0.81-0.34,1.22c0,0,0.01-0.01,0.01-0.01c-0.07,0.09-0.15,0.18-0.22,0.27c-0.82,0.87-1.64,1.74-2.46,2.61   c-0.53,0.56-0.53,0.56-1.33,0.03c1.29-4.94,3.73-9.4,5.88-13.97C333.18,287.04,335.98,281.18,338.76,275.32z" style="fill: #F3F4F3;"/><path fill="#75c068" d="M328.32,304.25c0.07-0.09,0.15-0.18,0.22-0.27C328.47,304.06,328.4,304.16,328.32,304.25z" style="fill: #75C068;"/><path fill="#90c542" d="M149.54,304.74c-2.34-3.19-4.02-6.74-5.34-10.44c-2.49-6.97-4.3-14.14-5.36-21.47   c-0.49-3.41-0.79-6.85-1.17-10.28c0.47,0.1,0.94,0.19,1.4,0.31c11.07,2.9,17.82,10.15,20.84,20.99c1.58,5.69,1.92,11.57,1.91,17.45   c-0.01,4.38-0.32,8.77-0.49,13.15c-3.36-8.23-6.58-16.5-8.36-25.25c-0.91-4.48-1.88-8.96-2.84-13.43c-0.24-1.09-1.55-2.22-2.6-2.21   c-0.35,0-0.86,0.32-1.01,0.64c-0.29,0.63-0.37,1.35-0.54,2.04c-1.65-0.41-2.11-0.13-2.45,1.57c-0.07,0.37-0.07,0.8,0.03,1.17   c0.42,1.58,0.95,3.12,1.32,4.71c1.59,6.82,3.15,13.66,4.71,20.49C149.64,304.35,149.56,304.55,149.54,304.74z" style="fill: #90C542;"/><path fill="#f4f5f3" d="M161.33,314.45c0.17-4.38,0.48-8.77,0.49-13.15c0.01-5.87-0.32-11.76-1.91-17.45   c-3.02-10.84-9.77-18.09-20.84-20.99c-0.46-0.12-0.93-0.21-1.4-0.31c-0.01-0.32-0.04-0.64-0.04-0.95c0.02-1.32,0.67-1.91,1.98-1.68   c5.28,0.91,9.99,3.06,13.99,6.67c5.61,5.06,8.51,11.48,9.72,18.85c1.25,7.57,0.99,15.17,0.85,22.77c-0.05,3.01-0.33,6.02-0.5,9.12   C162.29,316.83,161.62,315.8,161.33,314.45z" style="fill: #F4F5F3;"/><path fill="#f3f4f3" d="M149.54,304.74c0.02-0.19,0.1-0.39,0.06-0.57c-1.56-6.83-3.11-13.67-4.71-20.49   c-0.37-1.59-0.9-3.13-1.32-4.71c-0.1-0.37-0.11-0.79-0.03-1.17c0.34-1.69,0.8-1.97,2.45-1.57c1.85,7.78,3.67,15.57,5.57,23.34   c0.89,3.63,2.19,7.12,4.05,10.38c0.6,1.05,1.02,2.21,1.37,3.63c-0.33-0.1-0.8-0.1-0.98-0.32c-2.08-2.67-4.12-5.36-6.17-8.06   c-0.08-0.16-0.17-0.32-0.25-0.48C149.57,304.73,149.54,304.74,149.54,304.74z" style="fill: #F3F4F3;"/><path fill="#90c542" d="M149.57,304.73c0.08,0.16,0.17,0.32,0.25,0.48C149.73,305.05,149.65,304.89,149.57,304.73z" style="fill: #90C542;"/><path fill="#3fbed7" d="M333.16,443.07c-6.12,0-12.01,0-18.08,0c2.63-3.83,5.18-7.55,7.8-11.37   C326.31,435.49,329.67,439.21,333.16,443.07z" style="fill: #3FBED7;"/><path fill="#ffffff" d="M219.67,376.44c-3.79-0.52-6.08-2.99-8.01-6.03c-2.76-4.34-5.82-8.5-8.35-12.97   c-2.28-4.02-4.89-7.95-5.76-12.63c-0.59-3.16,0.3-6,1.98-8.63c0.71-1.11,1.57-2.12,2.38-3.15c0.63-0.8,0.51-1.45-0.35-1.96   c-1.92-1.14-3.87-2.23-5.76-3.41c-0.45-0.28-1.1-1.08-1.01-1.22c0.36-0.55,0.95-1.27,1.49-1.31c2.1-0.16,4.22-0.19,6.32-0.06   c5.51,0.34,11.01,0.39,16.49-0.44c1.08-0.16,1.96,0.13,2.65,0.99c0.45,0.56,1.02,1.03,1.41,1.63c3.13,4.81,6.27,9.61,9.3,14.48   c0.56,0.9,0.73,2.1,0.85,3.18c0.18,1.6-0.77,2.16-2.22,1.5c-2.03-0.91-4.09-1.75-6.13-2.62c-0.75-0.41-1.09,0.14-1.42,0.63   c-1.7,2.54-3.39,5.09-5.07,7.63c-0.14,0.21-0.21,0.47-0.42,0.95c0.67-0.13,1.1-0.22,1.54-0.31c4.98,0.31,9.95,0.6,14.93,0.93   c1.79,0.12,3.58,0.31,5.36,0.52c1.31,0.16,1.98,0.88,2.1,2.22c0.41,4.53,0.79,9.06,1.19,13.59c0.16,1.79,0.35,3.57,0.47,5.36   c0.05,0.75-0.03,1.51-0.05,2.27c-0.46,0.3-0.89,0.82-1.37,0.86c-2.52,0.23-5.09,0.68-7.57,0.41c-4.85-0.54-9.65-1.51-14.47-2.31   c0,0,0.01,0.06,0.01,0.06C220.01,376.56,219.84,376.5,219.67,376.44z M217.48,355.79c-0.86-0.18-1.33,0.3-1.71,0.97   c-1.23,2.13-2.52,4.22-3.64,6.4c-0.31,0.6-0.1,1.46-0.13,2.2c0.62,0.98,1.24,1.96,1.85,2.93c1.68,3.12,3.87,5.43,7.71,5.85   c3.76,0.42,7.46,1.29,11.21,1.75c2.31,0.29,4.68,0.28,7.01,0.22c1.36-0.04,1.72-0.58,1.59-1.85c-0.46-4.8-0.96-9.6-1.44-14.4   c-0.07-1.02-0.15-2.04-0.23-3.17c-1.65-0.16-3.19-0.32-4.73-0.45c-2.62-0.23-5.25-0.34-7.85-0.7   C223.88,355.1,220.68,355.34,217.48,355.79z M222.78,331.4c-1.02-3.11-2.48-4.08-5.58-3.97c-3.22,0.11-6.45,0.06-9.68,0.07   c-2.36,0.01-4.72,0-7.08,0c1.06,0.75,2.19,1.24,3.24,1.86c0.83,0.49,1.56,1.15,2.34,1.73c-0.19,0.5-0.38,1-0.56,1.5   c-0.63,0.91-1.14,1.95-1.92,2.71c-4.41,4.36-4.22,10.03-0.68,15.09c2.08,3.91,3.92,7.98,6.82,11.39c1.56-2.72,3.04-5.39,4.63-8.01   c1.59-2.62,3.29-5.17,4.93-7.76c0.89-1.41,1.84-2.8,2.57-4.29c0.93-1.92,1.5-2.18,3.38-1.08c1.73,1.02,3.44,2.06,5.3,3.18   c-0.04-0.34-0.01-0.52-0.08-0.64c-2.47-3.89-4.96-7.77-7.44-11.66C222.93,331.49,222.84,331.45,222.78,331.4z" style="fill: #ffffff;"/><path fill="#ffffff" d="M290.18,353.36c-0.47,0.97-0.94,1.95-1.41,2.92c-1.85,3.46-3.67,6.94-5.54,10.38   c-2.57,4.72-6.32,8.05-11.61,9.36c-1.71,0.42-3.52,0.46-5.4,0.68c0,1.07,0,2.06,0,3.05c-0.02,0.24-0.04,0.49-0.06,0.73   c-0.47,0.95-0.93,1.91-1.4,2.86c-1.58,0.54-2.49,0.23-3.36-1.11c-0.3-0.47-0.58-0.98-0.99-1.34c-4.04-3.6-6.84-8.2-10.14-12.4   c-0.73-0.93-1.57-1.79-2.43-2.62c-1.11-1.07-1.08-2.18-0.08-3.32c1.47-1.66,3.01-3.32,4.16-5.2c2.37-3.87,4.45-7.91,6.74-11.83   c0.69-1.19,1.61-2.27,2.54-3.3c0.3-0.34,1.04-0.59,1.44-0.46c0.4,0.13,0.82,0.75,0.9,1.21c0.53,3.14,1,6.3,1.42,9.46   c0.14,1.08,0.58,1.6,1.7,1.46c3.16-0.4,6.33-0.78,9.64-1.19c-0.21-0.39-0.34-0.66-0.49-0.91c-2.5-4.12-4.98-8.26-7.52-12.36   c-0.84-1.35-1.77-2.66-2.77-3.89c-0.85-1.04-1.09-2.06-0.29-3.15c0.88-1.21,1.65-2.68,2.84-3.44c4.39-2.81,8.53-5.88,12.24-9.55   c1.24-1.22,2.45-1.04,3.32,0.47c2.61,4.56,5.2,9.14,7.72,13.75c1.55,2.85,2.03,5.93,1.64,9.15c-0.9,3.42-1.79,6.84-2.69,10.25   c0,0,0.05,0.04,0.05,0.04C290.3,353.17,290.24,353.27,290.18,353.36z M285.63,357.27c0.08-0.08,0.15-0.16,0.23-0.24   c0.48-0.97,0.96-1.94,1.44-2.92c0.25-0.5,0.5-1,0.88-1.74c-2.74,0.71-5.2,1.34-7.66,1.98c-5.18,0.9-10.36,1.81-15.53,2.71   c-1.47-0.15-1.78-0.5-1.94-2c-0.14-1.34-0.33-2.68-0.5-4.02c-0.21-1.92-0.43-3.84-0.68-6.12c-0.38,0.65-0.58,0.97-0.77,1.3   c-2.85,4.88-5.59,9.83-8.58,14.63c-2.3,3.7-2.79,2.64,0.22,6.66c2.92,4.9,6.71,9.03,11.04,12.81c0.24-1.24,0.22-2.39,0.25-3.53   c0.05-1.62,1.22-2.84,2.83-3.01c0.79-0.08,1.59-0.16,2.38-0.23c4.01-0.37,7.42-2.03,9.78-5.28c2.15-2.95,3.96-6.15,5.89-9.25   c0.33-0.52,0.51-1.13,0.76-1.71C285.67,357.29,285.63,357.27,285.63,357.27z M269.54,336.67c0.01,0.08-0.01,0.18,0.02,0.24   c2.95,4.68,5.92,9.34,8.84,14.04c0.5,0.8,1.06,0.96,1.89,0.74c2.42-0.64,4.84-1.28,7.28-1.86c1.05-0.25,1.67-0.81,1.89-1.88   c0.22-1.05,0.55-2.07,0.8-3.12c0.57-2.42,1.23-4.95,0.09-7.28c-2.04-4.17-4.35-8.2-6.56-12.29c-0.7-1.18-1.4-2.37-2.14-3.62   c-0.39,0.32-0.68,0.58-0.99,0.82c-2.76,2.14-5.53,4.27-8.29,6.41c-1.35,1.04-2.73,2.05-4.05,3.13c-0.65,0.53-1.03,1.25-0.49,2.1   C268.39,334.97,268.97,335.81,269.54,336.67z" style="fill: #ffffff;"/><path fill="#ffffff" d="M228.9,325.97c0,0,0.01,0.07,0.01,0.07c-0.13-0.06-0.26-0.12-0.38-0.18c-2.2-1.1-4.4-2.24-6.62-3.3   c-1.13-0.54-2.3-1-3.48-1.44c-2.05-0.77-4.12-1.48-6.17-2.27c-1.24-0.48-1.57-1.68-0.77-2.97c2.77-4.47,5.56-8.93,8.4-13.35   c0.6-0.93,1.38-1.76,2.15-2.56c1.7-1.76,3.75-2.93,6.14-3.51c2.75-0.66,5.45-1.72,8.23-1.99c4.55-0.45,9.15-0.44,13.73-0.55   c2.71-0.07,5.42-0.17,8.07,0.63c4.32,1.3,7.91,3.54,10.21,7.55c0.36,0.62,0.8,1.19,1.17,1.73c1.61-0.62,3.15-1.26,4.72-1.81   c0.98-0.34,1.96-0.14,2.59,0.71c0.64,0.87,0.59,1.84,0.07,2.82c-0.4,0.77-0.67,1.6-1,2.41c-0.98,2.58-1.93,5.18-2.96,7.75   c-1.36,3.38-2.79,6.73-4.17,10.1c-0.43,1.04-1.43,1.53-2.64,1.17c-0.72-0.22-1.42-0.56-2.15-0.67c-5.57-0.88-11.17-1.03-16.8-0.69   c-1.77-0.24-3.54-0.42-5.29-0.74c-0.45-0.08-1.12-0.6-1.14-0.94c-0.03-0.52,0.28-1.25,0.7-1.58c2.41-1.9,4.89-3.7,7.35-5.55   c1.32-0.99,1.37-1.28,0.41-2.63c-1.78-2.49-3.58-4.98-5.45-7.57c-0.19,0.34-0.31,0.57-0.43,0.79c-0.78,1.28-1.58,2.55-2.33,3.86   c-2.25,3.93-4.6,7.8-6.66,11.82c-1.54,3-1.55,3.2-4.91,2.95C229.29,325.99,229.1,325.98,228.9,325.97z M266.44,304.45   c-0.11-0.18-0.23-0.37-0.34-0.55l-0.05-0.1c-2.15-3.85-5.39-6.34-9.72-6.96c-3.65-0.53-7.38-0.63-11.07-0.77   c-2.33-0.09-4.66,0.11-7.37,0.19c1.29,1.4,2.33,2.52,3.37,3.64c0.14,0.19,0.27,0.39,0.44,0.55c4.08,4.12,7.66,8.65,10.95,13.41   c0.41,0.59,0.56,1.36,0.83,2.05c-0.41,0.42-0.77,0.92-1.24,1.25c-2.5,1.79-5.02,3.53-7.53,5.3c-0.2,0.14-0.36,0.32-0.66,0.59   c3.42,0,6.63,0,9.85,0c3.53,0.28,7.06,0.51,10.58,0.85c1.37,0.13,2.2-0.28,2.69-1.57c0.28-0.74,0.73-1.41,1.05-2.14   c1.51-3.49,2.99-6.98,4.48-10.47c0.61-1.7,1.35-3.35,1.51-5.36c-2.34,0.83-4.26,2.88-6.8,1.28l0.01,0.02   c-0.09-0.11-0.18-0.23-0.27-0.34c-0.01-0.07-0.05-0.11-0.12-0.12C266.82,304.94,266.63,304.69,266.44,304.45L266.44,304.45z    M217.5,317.91c2.87,1.42,5.74,2.86,8.62,4.24c1.11,0.53,2.26,0.98,3.41,1.39c0.86,0.31,1.61,0.18,2.12-0.75   c3.24-5.86,6.52-11.72,9.78-17.57c-0.14-0.53-0.12-1.2-0.45-1.57c-1.67-1.93-3.43-3.77-5.14-5.66c-0.66-0.73-1.43-0.94-2.37-0.7   c-1.04,0.26-2.09,0.48-3.12,0.78c-2.49,0.72-5.14,1.38-6.7,3.61c-3.39,4.84-6.57,9.83-10.02,15.01   C215.2,317.18,216.35,317.54,217.5,317.91z" style="fill: #ffffff;"/><path fill="#bfe0e5" d="M266.22,379.76c0-0.99,0-1.98,0-3.05c1.88-0.23,3.69-0.26,5.4-0.68c5.29-1.31,9.04-4.64,11.61-9.36   c1.88-3.44,3.7-6.92,5.54-10.38c0.42-0.07,0.84-0.15,1.53-0.27c-0.44,1.04-0.73,1.94-1.18,2.74c-1.66,2.95-3.32,5.9-5.09,8.79   c-1.14,1.86-2.31,3.74-3.73,5.38c-2.66,3.08-6.28,4.26-10.23,4.43C268.28,377.43,266.91,378,266.22,379.76z" style="fill: #BFE0E5;"/><path fill="#bbdce1" d="M247.25,325.6c5.62-0.34,11.23-0.19,16.8,0.69c0.73,0.12,1.43,0.46,2.15,0.67   c1.21,0.37,2.22-0.12,2.64-1.17c1.37-3.37,2.81-6.72,4.17-10.1c1.03-2.57,1.98-5.17,2.96-7.75c0.13,0.38,0.45,0.82,0.36,1.14   c-1.7,6.09-4.17,11.87-7.23,17.4c-0.63,1.14-1.53,1.23-2.73,1.04c-5.53-0.84-11.12-0.83-16.7-0.76c-1.1,0.01-2.2,0-3.67,0   C246.6,326.2,246.92,325.9,247.25,325.6z" style="fill: #BBDCE1;"/><path fill="#bfe0e5" d="M228.9,325.97c0.2,0.01,0.4,0.02,0.59,0.04c3.36,0.26,3.37,0.05,4.91-2.95c2.06-4.02,4.41-7.9,6.66-11.82   c0.75-1.3,1.55-2.57,2.33-3.86c0.57,0.68,0.44,1.34,0.02,2.07c-3.15,5.57-6.3,11.14-9.4,16.74c-0.59,1.07-1.33,1.43-2.43,1   C230.67,326.83,229.79,326.38,228.9,325.97z" style="fill: #BFE0E5;"/><path fill="#bbdce1" d="M220.16,376.56c4.82,0.79,9.62,1.77,14.47,2.31c2.48,0.28,5.05-0.18,7.57-0.41   c0.48-0.04,0.92-0.56,1.37-0.86c0.1,1.63-0.06,2.09-1.63,2.16c-2.52,0.11-5.09,0.06-7.59-0.25c-3.94-0.49-7.86-1.21-11.77-1.92   C221.74,377.43,220.97,376.91,220.16,376.56z" style="fill: #BBDCE1;"/><path fill="#bfe0e5" d="M219.59,352.7c-0.44,0.09-0.87,0.18-1.54,0.31c0.21-0.48,0.28-0.74,0.42-0.95c1.68-2.55,3.37-5.1,5.07-7.63   c0.33-0.5,0.67-1.04,1.42-0.63C223.16,346.76,221.37,349.73,219.59,352.7z" style="fill: #BFE0E5;"/><path fill="#bbdce1" d="M290.3,353.04c0.9-3.42,1.8-6.84,2.69-10.25c0.38,3.27-0.65,6.33-1.54,9.39   C291.34,352.54,290.7,352.75,290.3,353.04z" style="fill: #BBDCE1;"/><path fill="#bbdce1" d="M264.77,383.35c0.47-0.95,0.93-1.91,1.4-2.86c0,1.17,0,2.34,0,3.51c-0.14,0.03-0.28,0.06-0.41,0.09   C265.42,383.85,265.09,383.6,264.77,383.35z" style="fill: #BBDCE1;"/><path fill="#bbdce1" d="M219.67,376.44c0.17,0.06,0.34,0.11,0.51,0.17C220.01,376.56,219.84,376.5,219.67,376.44z" style="fill: #BBDCE1;"/><path fill="#bbdce1" d="M290.18,353.36c0.06-0.09,0.11-0.19,0.17-0.28C290.29,353.17,290.24,353.27,290.18,353.36z" style="fill: #BBDCE1;"/><path fill="#bfe0e5" d="M228.53,325.86c0.13,0.06,0.26,0.12,0.38,0.18C228.78,325.98,228.65,325.92,228.53,325.86z" style="fill: #BFE0E5;"/><path fill="#fff5f5" d="M231.55,181.86c0,0-0.02-0.01-0.02-0.01c0.6,1.08,1.53,2.03,1.32,3.42c-0.7,2.76-1.02,5.52-0.19,8.31   c0.43,1.44-0.01,2.23-1.47,2.61c-1.69-0.16-2.35-1.18-2.73-2.78c-0.71-3.07-0.23-6.02,0.44-8.98c0.13-0.55,0.64-1.06,1.08-1.48   C230.44,182.52,231.02,182.22,231.55,181.86z" style="fill: #fff5f5;"/><path fill="#fff5f5" d="M239.71,195.65c-1.24-0.14-2.65-1.42-2.76-2.98c-0.17-2.52-0.21-5.08,0.02-7.59c0.08-0.84,1.14-1.58,2-2.69   c0.72,1.41,1.27,2.48,1.82,3.55c-0.45,1.89-0.22,3.74,0.33,5.58c0.19,0.64,0.29,1.31,0.34,1.98   C241.59,195.14,241.34,195.42,239.71,195.65z" style="fill: #fff5f5;"/><path fill="#ffffff" d="M249.85,193.25c-0.43,0.2-0.86,0.4-1.46,0.69c-0.26-0.56-0.66-1.09-0.74-1.67   c-0.28-2.19-0.59-4.39-0.6-6.59c-0.01-1.7,1.45-2.7,3.12-2.42c0.27,0.04,0.61,0.38,0.69,0.64c0.2,0.68,0.27,1.4,0.4,2.1   c-0.14,1.72-0.33,3.43-0.38,5.15C250.85,192.05,250.62,192.75,249.85,193.25z" style="fill: #ffffff;"/><path fill="#f8f9f6" d="M231.19,196.2c1.45-0.38,1.89-1.17,1.47-2.61c-0.82-2.79-0.51-5.56,0.19-8.31c0.39-0.2,0.77-0.4,1.21-0.62   c1,1.17,1.45,2.38,1.09,4.01c-0.58,2.62-0.74,5.29,0.16,7.92c0.34,1.01-0.39,1.58-1.1,2.01c-0.6,0.36-2.27-0.36-2.59-1.04   C231.4,197.13,231.32,196.65,231.19,196.2z" style="fill: #F8F9F6;"/><path fill="#f8f9f6" d="M239.71,195.65c1.62-0.23,1.87-0.51,1.75-2.14c-0.05-0.67-0.15-1.34-0.34-1.98   c-0.55-1.84-0.78-3.69-0.33-5.58c0.22-0.16,0.44-0.31,0.7-0.5c1.24,1.5,2.27,2.96,1.44,5.05c-0.2,0.5,0.17,1.23,0.3,1.85   c0.25,1.25,0.61,2.48,0.71,3.74c0.04,0.6-0.24,1.49-0.69,1.8c-0.71,0.49-1.7,0.55-2.34-0.34   C240.47,196.94,240.11,196.28,239.71,195.65z" style="fill: #F8F9F6;"/><path fill="#f8f9f6" d="M249.85,193.25c0.77-0.49,1-1.2,1.03-2.11c0.05-1.72,0.25-3.43,0.38-5.15c0.6-0.01,1.58-0.24,1.74,0.02   c0.43,0.7,0.67,1.61,0.68,2.44c0.01,1.83-0.16,3.66-0.26,5.5c-0.09,1.48-1.23,1.9-2.58,2.5   C250.49,195.32,250.17,194.28,249.85,193.25z" style="fill: #F8F9F6;"/><path fill="#c6e7eb" d="M205.45,332.6c0.19-0.5,0.38-1,0.56-1.5c1.64,0.02,3.27,0.06,4.91,0.07c1.75,0.01,3.5,0,5.24,0   c2.21,0,4.43-0.6,6.61,0.24c0.06,0.05,0.15,0.08,0.19,0.15c2.48,3.88,4.97,7.77,7.44,11.66c0.07,0.11,0.04,0.29,0.08,0.64   c-1.86-1.12-3.57-2.16-5.3-3.18c-1.88-1.11-2.45-0.84-3.38,1.08c-0.73,1.49-1.68,2.88-2.57,4.29c-1.63,2.59-3.34,5.14-4.93,7.76   c-1.58,2.61-3.06,5.29-4.63,8.01c-2.9-3.42-4.74-7.48-6.82-11.39c-0.06-0.35-0.11-0.7-0.19-1.04c-0.65-2.94-0.51-5.79,1.23-8.35   c1.18-1.73,2.52-3.36,3.71-5.08c0.73-1.05,0.52-1.63-0.61-2.29C206.48,333.31,205.97,332.94,205.45,332.6z" style="fill: #C6E7EB;"/><path fill="#c6e7eb" d="M239.92,359.87c0.48,4.8,0.98,9.6,1.44,14.4c0.12,1.28-0.23,1.82-1.59,1.85c-2.34,0.06-4.7,0.07-7.01-0.22   c-3.75-0.46-7.46-1.34-11.21-1.75c-3.83-0.43-6.02-2.74-7.71-5.85c0.16-0.61,0.2-1.28,0.49-1.81c1.17-2.14,2.4-4.24,3.64-6.33   c0.19-0.31,0.56-0.71,0.86-0.73c3.14-0.2,6.29-0.51,9.42-0.43C232.15,359.1,236.04,359.56,239.92,359.87z" style="fill: #C6E7EB;"/><path fill="#2dbcd7" d="M239.92,359.87c-3.89-0.31-7.77-0.76-11.66-0.87c-3.13-0.09-6.28,0.23-9.42,0.43   c-0.31,0.02-0.68,0.42-0.86,0.73c-1.24,2.09-2.48,4.19-3.64,6.33c-0.29,0.53-0.33,1.2-0.49,1.81c-0.62-0.98-1.24-1.96-1.85-2.93   c1.83-3.19,3.66-6.38,5.49-9.57c3.2-0.46,6.39-0.69,9.63-0.25c2.6,0.36,5.23,0.47,7.85,0.7c1.54,0.14,3.08,0.29,4.73,0.45   C239.78,357.83,239.85,358.85,239.92,359.87z" style="fill: #2DBCD7;"/><path fill="#2dbcd7" d="M222.78,331.4c-2.18-0.83-4.4-0.24-6.61-0.24c-1.75,0-3.5,0.01-5.24,0c-1.64-0.01-3.27-0.04-4.91-0.07   c-0.78-0.58-1.51-1.24-2.34-1.73c-1.05-0.62-2.18-1.11-3.24-1.86c2.36,0,4.72,0.01,7.08,0c3.23-0.01,6.45,0.04,9.68-0.07   C220.3,327.33,221.76,328.29,222.78,331.4z" style="fill: #2DBCD7;"/><path fill="#2bbbd6" d="M205.45,332.6c0.52,0.35,1.02,0.71,1.55,1.03c1.12,0.67,1.34,1.24,0.61,2.29c-1.2,1.72-2.53,3.35-3.71,5.08   c-1.75,2.57-1.88,5.41-1.23,8.35c0.08,0.35,0.13,0.7,0.19,1.04c-3.54-5.06-3.73-10.74,0.68-15.09   C204.31,334.55,204.82,333.51,205.45,332.6z" style="fill: #2BBBD6;"/><path fill="#bfe0e5" d="M217.48,355.79c-1.83,3.19-3.66,6.38-5.49,9.57c0.03-0.74-0.18-1.6,0.13-2.2c1.12-2.18,2.42-4.27,3.64-6.4   C216.15,356.1,216.63,355.61,217.48,355.79z" style="fill: #BFE0E5;"/><path fill="#c6e7eb" d="M285.67,357.29c-0.25,0.57-0.43,1.18-0.76,1.71c-1.93,3.11-3.74,6.3-5.89,9.25   c-2.36,3.25-5.77,4.91-9.78,5.28c-0.79,0.07-1.59,0.15-2.38,0.23c-1.61,0.16-2.78,1.38-2.83,3.01c-0.03,1.14-0.01,2.29-0.25,3.53   c-4.33-3.78-8.13-7.92-11.04-12.81c0.26-0.52,0.48-1.08,0.8-1.56c1.23-1.86,2.59-3.64,3.73-5.55c1.83-3.08,3.52-6.23,5.27-9.36   c0.17,1.34,0.36,2.68,0.5,4.02c0.16,1.51,0.47,1.86,1.94,2c0.08,0.55,0.19,1.1,0.24,1.65c0.15,1.42,0.67,1.92,2.08,1.86   c0.71-0.03,1.43-0.13,2.13-0.25c3.52-0.6,7.04-1.19,10.56-1.83C281.89,358.15,283.78,357.7,285.67,357.29z" style="fill: #C6E7EB;"/><path fill="#c6e7eb" d="M283.8,325.26c2.2,4.09,4.52,8.12,6.56,12.29c1.14,2.33,0.48,4.85-0.09,7.28c-0.25,1.04-0.58,2.07-0.8,3.12   c-0.22,1.07-0.84,1.63-1.89,1.88c-2.44,0.58-4.86,1.23-7.28,1.86c-0.83,0.22-1.39,0.06-1.89-0.74c-2.92-4.7-5.89-9.36-8.84-14.04   c-0.04-0.06-0.02-0.16-0.02-0.24c0.8-0.82,1.51-1.77,2.41-2.44c2.68-1.99,5.46-3.83,8.14-5.81   C281.4,327.46,282.57,326.32,283.8,325.26z" style="fill: #C6E7EB;"/><path fill="#2dbcd7" d="M285.67,357.29c-1.89,0.41-3.78,0.86-5.68,1.21c-3.51,0.64-7.04,1.23-10.56,1.83   c-0.7,0.12-1.42,0.22-2.13,0.25c-1.41,0.06-1.93-0.44-2.08-1.86c-0.06-0.55-0.16-1.1-0.24-1.65c5.18-0.9,10.36-1.81,15.53-2.71   c0.28,1.08,0.91,1.32,1.97,1.01c1.59-0.48,3.21-0.84,4.81-1.24c-0.48,0.97-0.96,1.94-1.44,2.92c-0.08,0.08-0.15,0.16-0.23,0.24   L285.67,357.29z" style="fill: #2DBCD7;"/><path fill="#2bbbd6" d="M262.54,351.03c-1.75,3.12-3.44,6.28-5.27,9.36c-1.14,1.91-2.5,3.69-3.73,5.55   c-0.32,0.48-0.54,1.04-0.8,1.56c-3.01-4.02-2.52-2.96-0.22-6.66c2.98-4.8,5.73-9.74,8.58-14.63c0.19-0.33,0.39-0.65,0.77-1.3   C262.12,347.19,262.33,349.11,262.54,351.03z" style="fill: #2BBBD6;"/><path fill="#2bbbd6" d="M283.8,325.26c-1.23,1.06-2.4,2.2-3.7,3.16c-2.68,1.98-5.47,3.82-8.14,5.81c-0.91,0.67-1.61,1.62-2.41,2.44   c-0.57-0.85-1.15-1.7-1.71-2.56c-0.55-0.85-0.16-1.56,0.49-2.1c1.32-1.08,2.7-2.09,4.05-3.13c2.77-2.13,5.53-4.27,8.29-6.41   c0.31-0.24,0.61-0.5,0.99-0.82C282.4,322.89,283.1,324.07,283.8,325.26z" style="fill: #2BBBD6;"/><path fill="#bfe0e5" d="M287.3,354.11c-1.61,0.41-3.23,0.77-4.81,1.24c-1.06,0.32-1.69,0.08-1.97-1.01   c2.46-0.64,4.92-1.27,7.66-1.98C287.8,353.11,287.55,353.61,287.3,354.11z" style="fill: #BFE0E5;"/><path fill="#c6e7eb" d="M285.63,357.27c0.08-0.08,0.15-0.16,0.23-0.24C285.78,357.11,285.7,357.19,285.63,357.27z" style="fill: #C6E7EB;"/><path fill="#c6e7eb" d="M267.01,305.19c0.07,0.01,0.11,0.05,0.12,0.12c0.09,0.11,0.18,0.23,0.27,0.34c0,0-0.01-0.02-0.01-0.02   c0.37,0.64,0.74,1.28,1.09,1.93c0.91,1.67,2.25,2.51,4.2,2.15c-1.49,3.49-2.98,6.99-4.48,10.47c-0.31,0.73-0.77,1.4-1.05,2.14   c-0.48,1.28-1.32,1.7-2.69,1.57c-3.52-0.35-7.05-0.58-10.58-0.85c-0.79-0.07-1.59-0.14-2.61-0.23c1.17-0.8,2.18-1.43,3.12-2.15   c1.37-1.05,1.43-1.58,0.46-2.97c-0.43-0.62-0.92-1.19-1.38-1.78c-0.27-0.69-0.42-1.46-0.83-2.05c-3.29-4.76-6.86-9.3-10.95-13.41   c-0.16-0.17-0.29-0.37-0.44-0.55c0.43-0.07,0.85-0.22,1.28-0.21c4.57,0.12,9.13,0.3,13.7,0.41c3.39,0.09,6.37,1.2,8.94,3.41   c0.21,0.18,0.58,0.19,0.88,0.28c0,0,0.05,0.1,0.05,0.1c0.11,0.18,0.23,0.37,0.34,0.55c0,0-0.01-0.01-0.01-0.01   C266.63,304.69,266.82,304.94,267.01,305.19z" style="fill: #C6E7EB;"/><path fill="#c6e7eb" d="M241.44,305.22c-3.26,5.86-6.53,11.71-9.78,17.57c-0.51,0.93-1.26,1.05-2.12,0.75   c-1.16-0.41-2.31-0.86-3.41-1.39c-2.89-1.39-5.75-2.83-8.62-4.24c2.16-3.44,4.37-6.85,6.46-10.34c1.9-3.18,4.66-5.06,8.22-5.88   c1.12-0.26,2.26-0.5,3.36-0.84c1.02-0.31,1.78-0.03,2.46,0.71C239.14,302.78,240.29,304,241.44,305.22z" style="fill: #C6E7EB;"/><path fill="#2bbbd6" d="M241.44,305.22c-1.15-1.22-2.29-2.44-3.43-3.67c-0.68-0.74-1.45-1.02-2.46-0.71   c-1.1,0.34-2.23,0.58-3.36,0.84c-3.56,0.82-6.31,2.71-8.22,5.88c-2.09,3.49-4.3,6.9-6.46,10.34c-1.15-0.37-2.31-0.73-3.85-1.22   c3.44-5.19,6.63-10.17,10.02-15.01c1.56-2.23,4.21-2.89,6.7-3.61c1.03-0.3,2.08-0.52,3.12-0.78c0.93-0.24,1.71-0.03,2.37,0.7   c1.71,1.89,3.47,3.73,5.14,5.66C241.32,304.02,241.3,304.69,241.44,305.22z" style="fill: #2BBBD6;"/><path fill="#2bbbd6" d="M266.05,303.8c-0.3-0.09-0.66-0.1-0.88-0.28c-2.57-2.22-5.55-3.33-8.94-3.41   c-4.57-0.11-9.13-0.29-13.7-0.41c-0.42-0.01-0.85,0.13-1.28,0.21c-1.04-1.12-2.08-2.24-3.37-3.64c2.7-0.08,5.04-0.28,7.37-0.19   c3.7,0.14,7.42,0.24,11.07,0.77C260.67,297.46,263.91,299.95,266.05,303.8z" style="fill: #2BBBD6;"/><path fill="#2eb9d3" d="M253.47,315.92c0.46,0.59,0.95,1.17,1.38,1.78c0.97,1.39,0.91,1.92-0.46,2.97   c-0.94,0.72-1.95,1.35-3.12,2.15c1.02,0.09,1.82,0.16,2.61,0.23c-3.22,0-6.43,0-9.85,0c0.3-0.27,0.46-0.45,0.66-0.59   c2.51-1.77,5.04-3.51,7.53-5.3C252.7,316.83,253.06,316.34,253.47,315.92z" style="fill: #2EB9D3;"/><path fill="#2bbbd6" d="M272.69,309.72c-1.95,0.36-3.28-0.48-4.2-2.15c-0.35-0.65-0.73-1.29-1.09-1.93c2.54,1.6,4.46-0.45,6.8-1.28   C274.04,306.37,273.29,308.03,272.69,309.72z" style="fill: #2BBBD6;"/><path fill="#2bbbd6" d="M267.01,305.19c-0.19-0.25-0.38-0.5-0.57-0.75C266.63,304.69,266.82,304.94,267.01,305.19z" style="fill: #2BBBD6;"/><path fill="#2bbbd6" d="M266.44,304.45c-0.11-0.18-0.23-0.37-0.34-0.55C266.22,304.08,266.33,304.27,266.44,304.45z" style="fill: #2BBBD6;"/><path fill="#2bbbd6" d="M267.4,305.65c-0.09-0.11-0.18-0.23-0.27-0.34C267.22,305.43,267.31,305.54,267.4,305.65z" style="fill: #2BBBD6;"/></svg> <svg y="408.4221322631836" viewBox="-0.3400000035762787 3.0899999141693115 398.3399963378906 39.380001068115234" x="88.33000183105469" height="39.380001068115234" width="398.3399963378906" style="overflow: visible;"><g fill="#ffffff" fill-opacity="1" style=""><path d="M28.02 8.98L28.02 8.98L30.16 10.03Q27.98 13.57 25.01 16.32Q22.03 19.07 17.10 21.79L17.10 21.79Q18.05 26.72 19.45 29.70Q20.84 32.67 23.09 33.01L23.09 33.01L23.09 34.58Q22.81 34.61 22.37 34.61L22.37 34.61Q20.09 34.61 17.97 31.45Q15.84 28.29 14.14 22.10L14.14 22.10Q12.68 26.69 9.69 29.36Q6.70 32.03 3.47 32.03L3.47 32.03Q1.80 32.03 0.73 31.13Q-0.34 30.23-0.34 28.64Q-0.34 27.06 1.09 25.36Q2.52 23.66 5.00 22.51L5.00 22.51L5.78 23.73Q2.72 25.91 2.72 27.81L2.72 27.81Q2.72 28.73 3.33 29.29Q3.94 29.85 4.93 29.85L4.93 29.85Q7.24 29.85 8.93 27.90Q10.61 25.94 11.93 21.05L11.93 21.05Q13.60 14.89 15.33 12.99L15.33 12.99Q16.12 12.10 17.61 11.05L17.61 11.05Q15.27 11.12 12.82 11.85Q10.37 12.58 8.53 14.03Q6.70 15.47 6.70 17.24L6.70 17.24Q6.70 19.52 8.77 20.88L8.77 20.88L8.09 21.93Q6.19 21.01 5.10 19.55Q4.01 18.09 4.01 16.52L4.01 16.52Q4.01 14.38 6.36 12.48Q8.70 10.57 12.12 9.52Q15.54 8.47 18.84 8.47L18.84 8.47Q20.88 8.47 20.88 9.35L20.88 9.35Q20.88 9.93 19.69 10.81L19.69 10.81Q17.51 12.44 16.34 15.06Q15.16 17.68 14.42 21.18L14.42 21.18Q18.29 19.75 21.85 16.44Q25.40 13.12 28.02 8.98ZM32.74 26.11L32.74 26.11L33.46 26.69Q32.30 28.49 31.47 29.29Q30.63 30.09 29.61 30.09Q28.59 30.09 27.95 29.27Q27.30 28.46 27.30 27.23L27.30 27.23Q27.30 24.85 30.43 16.98Q33.56 9.11 36.86 3.13L36.86 3.13L38.35 3.94Q35.02 10.40 32.33 16.78Q29.65 23.15 29.65 25.94L29.65 25.94Q29.65 27.54 30.84 27.54L30.84 27.54Q31.79 27.54 32.74 26.11ZM46.17 25.36L46.17 25.36L46.95 25.98Q45.90 27.44 44.06 28.41Q42.23 29.38 40.49 29.38Q38.76 29.38 37.71 28.36Q36.65 27.34 36.65 25.67L36.65 25.67Q36.65 22.54 39.97 19.52Q43.28 16.49 46.68 16.49L46.68 16.49Q48.93 16.49 48.93 18.26L48.93 18.26Q48.93 20.09 46.56 21.96Q44.20 23.83 39.92 25.36L39.92 25.36Q40.22 26.15 40.87 26.59Q41.51 27.03 42.19 27.03L42.19 27.03Q43.66 27.03 46.17 25.36ZM39.75 24.34L39.75 24.34Q42.50 23.39 44.47 21.96Q46.44 20.54 46.44 19.35L46.44 19.35Q46.44 18.90 46.10 18.56Q45.76 18.22 45.32 18.22L45.32 18.22Q43.72 18.22 41.87 20.21Q40.02 22.20 39.75 24.34ZM56.54 14.96L56.54 14.96Q54.64 14.96 54.64 13.43L54.64 13.43Q54.64 12.58 55.11 12.00Q55.59 11.42 56.34 11.42Q57.09 11.42 57.56 11.87Q58.04 12.31 58.04 13.02Q58.04 13.74 57.63 14.35Q57.22 14.96 56.54 14.96ZM56.10 24.99L56.10 24.99L56.78 25.57Q55.96 27.13 54.62 28.24Q53.28 29.34 52.19 29.34L52.19 29.34Q50.29 29.34 50.29 26.69L50.29 26.69Q50.29 23.39 53.01 18.09L53.01 18.09Q53.62 16.93 53.72 16.73L53.72 16.73L55.18 17.61Q54.47 18.90 53.43 21.73Q52.39 24.55 52.39 25.35Q52.39 26.15 52.73 26.49Q53.07 26.83 53.55 26.83L53.55 26.83Q54.47 26.83 56.10 24.99ZM72.96 25.26L72.96 25.26L73.68 25.81Q72.93 27.30 71.62 28.32Q70.31 29.34 69.26 29.34Q68.20 29.34 67.59 28.73Q66.98 28.12 66.98 27.20Q66.98 26.28 68.15 23.99Q69.33 21.69 69.33 20.60L69.33 20.60Q69.33 20.13 68.94 19.74Q68.54 19.35 68 19.35L68 19.35Q66.27 19.35 64.50 21.98Q62.73 24.62 60.55 29.58L60.55 29.58L58.51 28.87Q59.16 24.92 60.37 21.16Q61.57 17.41 62.59 15.78L62.59 15.78L63.99 16.22Q63.04 18.63 61.57 24.55L61.57 24.55Q66.27 16.52 70.21 16.52L70.21 16.52Q71.06 16.52 71.62 17.10Q72.18 17.68 72.18 18.46Q72.18 19.24 71.98 19.87Q71.77 20.50 70.70 22.80Q69.63 25.09 69.63 25.67Q69.63 26.25 69.97 26.57Q70.31 26.89 70.62 26.89Q70.92 26.89 71.13 26.79Q71.33 26.69 71.59 26.49Q71.84 26.28 72.05 26.11Q72.25 25.94 72.54 25.65Q72.83 25.36 72.96 25.26ZM84.01 25.36L84.01 25.36L84.80 25.98Q83.74 27.44 81.91 28.41Q80.07 29.38 78.34 29.38Q76.60 29.38 75.55 28.36Q74.49 27.34 74.49 25.67L74.49 25.67Q74.49 22.54 77.81 19.52Q81.12 16.49 84.52 16.49L84.52 16.49Q86.77 16.49 86.77 18.26L86.77 18.26Q86.77 20.09 84.41 21.96Q82.04 23.83 77.76 25.36L77.76 25.36Q78.06 26.15 78.71 26.59Q79.36 27.03 80.04 27.03L80.04 27.03Q81.50 27.03 84.01 25.36ZM77.59 24.34L77.59 24.34Q80.34 23.39 82.31 21.96Q84.29 20.54 84.29 19.35L84.29 19.35Q84.29 18.90 83.95 18.56Q83.61 18.22 83.16 18.22L83.16 18.22Q81.57 18.22 79.71 20.21Q77.86 22.20 77.59 24.34ZM96.97 17.34L96.97 17.34Q97.82 17.34 98.36 17.92Q98.91 18.50 98.91 19.41L98.91 19.41Q98.91 21.25 96.80 23.29L96.80 23.29L95.98 22.64Q96.46 21.59 96.46 21.11L96.46 21.11Q96.46 20.20 95.44 20.20Q94.42 20.20 93.50 21.49Q92.58 22.78 91.34 25.48Q90.10 28.19 89.45 29.31L89.45 29.31L87.52 28.46Q89.39 24.21 89.66 23.46L89.66 23.46Q90.58 20.81 90.58 16.73L90.58 16.73L92.48 16.22Q92.38 18.43 92.17 19.63Q91.97 20.84 91.19 23.56L91.19 23.56Q94.62 17.34 96.97 17.34ZM120.90 23.12Q123.49 19.24 125.39 17.83Q127.30 16.42 128.72 16.42Q130.15 16.42 130.93 17.29Q131.72 18.16 131.72 19.48L131.72 19.48Q131.72 23.15 129.08 26.27Q126.45 29.38 123.15 29.38L123.15 29.38Q121.69 29.38 120.84 28.87L120.84 28.87L121.65 27.40Q123.42 27.64 123.86 27.64L123.86 27.64Q125.70 27.64 127.30 25.50Q128.89 23.36 128.89 21.11L128.89 21.11Q128.89 20.26 128.40 19.70Q127.91 19.14 127.13 19.14L127.13 19.14Q125.26 19.14 122.89 22.44Q120.53 25.74 118.47 30.62Q116.42 35.50 114.89 41.00L114.89 41.00L112.85 40.29Q112.91 40.09 114.12 36.77Q115.33 33.46 116.48 30.19L116.48 30.19Q119.68 21.22 119.68 20.37L119.68 20.37Q119.68 18.19 118.80 16.42L118.80 16.42L120.50 15.57Q121.55 17.03 121.55 18.65Q121.55 20.26 120.90 23.12L120.90 23.12ZM139.94 16.01L139.94 16.01L138.86 20.13L143.28 19.62L142.29 21.22L138.48 21.73Q138.04 23.56 136.99 27.27L136.99 27.27Q134.71 35.29 134.71 37.43L134.71 37.43L132.53 38.56Q132.53 35.63 135.05 27.27L135.05 27.27Q136.34 23.09 136.65 21.90L136.65 21.90Q135.46 22.20 134.47 22.20L134.47 22.20Q132.53 22.20 132.53 20.67L132.53 20.67Q132.53 19.82 133.82 18.63L133.82 18.63Q135.69 16.90 138.28 15.57L138.28 15.57Q140.28 8.74 141.17 7.00L141.17 7.00Q142.36 4.66 143.34 4.01L143.34 4.01Q144.81 3.09 146.37 3.09Q147.93 3.09 148.58 3.98Q149.23 4.86 149.16 6.05L149.16 6.05Q148.99 10.34 139.94 16.01ZM145.38 5.98L145.38 5.98Q143.48 5.98 142.56 7.82L142.56 7.82Q141.85 9.25 141.30 11.25Q140.76 13.26 140.52 14.01L140.52 14.01Q142.39 12.85 144.53 10.88Q146.68 8.91 146.74 7.45Q146.81 5.98 145.38 5.98ZM137.12 20.30L137.12 20.30L137.87 17.31Q136.58 17.85 135.85 18.43Q135.12 19.01 135.12 19.41L135.12 19.41Q135.12 20.30 137.12 20.30ZM158.85 25.94L158.85 25.94L159.63 26.52Q159.15 27.54 157.88 28.46Q156.60 29.38 155.55 29.38L155.55 29.38Q153.54 29.38 153.54 27.27L153.54 27.27Q153.54 26.28 154.05 24.92L154.05 24.92L152.80 26.21Q150.96 28.08 149.62 28.73Q148.27 29.38 146.98 29.38Q145.69 29.38 145.03 28.64Q144.36 27.91 144.36 26.62L144.36 26.62Q144.36 24.24 146.20 21.91Q148.04 19.58 150.89 18.12Q153.75 16.66 156.60 16.63L156.60 16.63L156.67 17.75L155.24 18.05Q152.15 18.73 149.79 20.77Q147.42 22.81 147.42 24.84Q147.42 26.86 149.06 26.86L149.06 26.86Q150.59 26.86 152.83 24.72Q155.07 22.58 156.57 19.69L156.57 19.69L158.00 20.54Q155.89 24.79 155.89 25.94L155.89 25.94Q155.89 26.42 156.21 26.74Q156.54 27.06 156.86 27.06Q157.18 27.06 157.28 27.03Q157.39 27.00 157.49 26.95Q157.59 26.89 157.74 26.79Q157.90 26.69 158.01 26.59Q158.13 26.49 158.41 26.28Q158.68 26.08 158.85 25.94ZM174.45 25.26L174.45 25.26L175.17 25.81Q174.42 27.30 173.11 28.32Q171.80 29.34 170.75 29.34Q169.69 29.34 169.08 28.73Q168.47 28.12 168.47 27.20Q168.47 26.28 169.64 23.99Q170.82 21.69 170.82 20.60L170.82 20.60Q170.82 20.13 170.42 19.74Q170.03 19.35 169.49 19.35L169.49 19.35Q167.76 19.35 165.99 21.98Q164.22 24.62 162.04 29.58L162.04 29.58L160.00 28.87Q160.65 24.92 161.86 21.16Q163.06 17.41 164.08 15.78L164.08 15.78L165.48 16.22Q164.53 18.63 163.06 24.55L163.06 24.55Q167.76 16.52 171.70 16.52L171.70 16.52Q172.55 16.52 173.11 17.10Q173.67 17.68 173.67 18.46Q173.67 19.24 173.47 19.87Q173.26 20.50 172.19 22.80Q171.12 25.09 171.12 25.67Q171.12 26.25 171.46 26.57Q171.80 26.89 172.11 26.89Q172.41 26.89 172.62 26.79Q172.82 26.69 173.08 26.49Q173.33 26.28 173.54 26.11Q173.74 25.94 174.03 25.65Q174.32 25.36 174.45 25.26ZM195.16 4.25L195.16 4.25L196.89 4.86L196.42 5.75Q192.68 12.72 190.06 19.24L190.06 19.24Q188.33 23.53 188.33 25.67L188.33 25.67Q188.33 26.21 188.60 26.54Q188.87 26.86 189.47 26.86Q190.06 26.86 190.84 26.08L190.84 26.08L191.45 26.66Q191.01 27.64 189.92 28.48Q188.84 29.31 187.82 29.31L187.82 29.31Q185.84 29.31 185.84 27.00L185.84 27.00Q185.84 25.64 186.59 22.81L186.59 22.81Q182.58 29.82 178.74 29.82L178.74 29.82Q177.41 29.82 176.63 29.00Q175.85 28.19 175.85 26.79L175.85 26.79Q175.85 24.58 177.62 22.20Q179.38 19.82 181.97 18.31Q184.55 16.80 186.80 16.80L186.80 16.80L186.90 17.99Q183.97 18.36 181.44 20.52Q178.91 22.68 178.91 24.92L178.91 24.92Q178.91 25.87 179.42 26.44Q179.93 27.00 180.74 27.00L180.74 27.00Q182.41 27.00 185.10 23.43L185.10 23.43Q186.08 22.13 187.36 19.65Q188.63 17.17 189.40 15.66Q190.16 14.14 190.89 12.70Q191.62 11.25 192.81 8.89Q194.00 6.53 195.16 4.25ZM194.58 28.25Q194.58 27.64 195.04 27.22Q195.50 26.79 196.16 26.79Q196.83 26.79 197.20 27.18Q197.57 27.57 197.57 28.22L197.57 28.22Q197.57 29.72 194.99 31.59L194.99 31.59L194.24 30.50Q195.60 29.41 195.64 29.34L195.64 29.34Q194.58 29.00 194.58 28.25L194.58 28.25ZM227.66 29.07L230.52 28.15L230.55 28.97Q230.21 29.17 227.46 30.19L227.46 30.19Q226.37 36.69 224.26 39.58Q222.16 42.47 219.10 42.47L219.10 42.47Q217.67 42.47 216.82 41.55Q215.97 40.63 215.97 39.17L215.97 39.17Q215.97 36.24 218.65 33.71Q221.34 31.18 225.83 29.72L225.83 29.72Q226.34 27.44 227.66 23.29L227.66 23.29Q225.39 26.76 223.53 27.98Q221.68 29.21 220.18 29.21Q218.69 29.21 217.92 28.39Q217.16 27.57 217.16 26.21L217.16 26.21Q217.16 23.97 219.03 21.64Q220.90 19.31 223.74 17.83Q226.58 16.35 229.23 16.35L229.23 16.35L229.50 17.54Q225.73 17.95 223.02 20.20Q220.32 22.44 220.32 24.51L220.32 24.51Q220.32 25.40 220.86 25.98Q221.41 26.55 222.19 26.55L222.19 26.55Q223.35 26.55 225.69 24.11Q228.04 21.66 228.99 19.92L228.99 19.92L230.25 20.64Q228.38 25.64 227.66 29.07L227.66 29.07ZM225.62 30.74L225.62 30.74Q222.67 32.10 220.73 34Q218.79 35.90 218.79 37.47L218.79 37.47Q218.79 38.28 219.27 38.79Q219.74 39.30 220.46 39.30L220.46 39.30Q221.88 39.30 223.28 37.30Q224.67 35.29 225.62 30.74ZM240.65 17.34L240.65 17.34Q241.50 17.34 242.05 17.92Q242.59 18.50 242.59 19.41L242.59 19.41Q242.59 21.25 240.48 23.29L240.48 23.29L239.67 22.64Q240.14 21.59 240.14 21.11L240.14 21.11Q240.14 20.20 239.12 20.20Q238.10 20.20 237.18 21.49Q236.27 22.78 235.03 25.48Q233.78 28.19 233.14 29.31L233.14 29.31L231.20 28.46Q233.07 24.21 233.34 23.46L233.34 23.46Q234.26 20.81 234.26 16.73L234.26 16.73L236.16 16.22Q236.06 18.43 235.86 19.63Q235.65 20.84 234.87 23.56L234.87 23.56Q238.31 17.34 240.65 17.34ZM251.12 19.82L252.89 19.28Q253.78 20.74 253.78 22.51L253.78 22.51Q253.78 25.26 251.87 27.42Q249.97 29.58 247.38 29.58L247.38 29.58Q245.41 29.58 244.31 28.44Q243.20 27.30 243.20 25.30L243.20 25.30Q243.20 22.07 245.72 19.50Q248.23 16.93 251.36 16.93L251.36 16.93Q251.94 16.93 252.18 16.97L252.18 16.97L252.28 18.09Q249.56 18.09 247.76 19.65Q245.96 21.22 245.96 23.66L245.96 23.66Q245.96 25.13 246.67 26.03Q247.38 26.93 248.76 26.93Q250.14 26.93 250.95 25.70Q251.77 24.48 251.77 22.83Q251.77 21.18 251.12 19.82L251.12 19.82ZM256.87 29.27L256.87 29.27L255.31 28.93Q255.51 27.71 257.86 21.08Q260.20 14.45 261.09 13.16L261.09 13.16Q262.28 11.49 263.91 11.49L263.91 11.49Q265.00 11.49 265.64 12.19Q266.29 12.89 266.29 14.26Q266.29 15.64 265.34 17.10Q264.38 18.56 261.87 20.77L261.87 20.77Q260.92 21.59 260.85 22.30L260.85 22.30Q260.85 23.09 261.70 24.36Q262.55 25.64 262.70 26.01Q262.85 26.38 262.85 27.29Q262.85 28.19 262.09 28.92Q261.32 29.65 260.19 29.65Q259.05 29.65 258.13 28.87L258.13 28.87L258.67 27.27Q259.49 27.85 260.24 27.85Q260.98 27.85 260.98 27.00L260.98 27.00Q260.98 26.72 260.19 25.11Q259.39 23.49 259.39 23.15L259.39 23.15Q259.39 21.83 261.22 19.96Q263.06 18.09 263.72 17.03Q264.38 15.98 264.38 15.10L264.38 15.10Q264.38 13.57 263.50 13.57L263.50 13.57Q261.12 13.57 256.87 29.27ZM275.94 25.36L275.94 25.36L276.73 25.98Q275.67 27.44 273.84 28.41Q272 29.38 270.27 29.38Q268.53 29.38 267.48 28.36Q266.42 27.34 266.42 25.67L266.42 25.67Q266.42 22.54 269.74 19.52Q273.05 16.49 276.45 16.49L276.45 16.49Q278.70 16.49 278.70 18.26L278.70 18.26Q278.70 20.09 276.33 21.96Q273.97 23.83 269.69 25.36L269.69 25.36Q269.99 26.15 270.64 26.59Q271.29 27.03 271.97 27.03L271.97 27.03Q273.43 27.03 275.94 25.36ZM269.52 24.34L269.52 24.34Q272.27 23.39 274.24 21.96Q276.22 20.54 276.22 19.35L276.22 19.35Q276.22 18.90 275.88 18.56Q275.54 18.22 275.09 18.22L275.09 18.22Q273.50 18.22 271.64 20.21Q269.79 22.20 269.52 24.34ZM315.01 16.15L315.01 16.15L315.96 17.03L313.92 19.52Q310.32 23.97 308.58 28.36L308.58 28.36Q308.14 29.27 307.68 29.27Q307.22 29.27 306.94 29.16Q306.65 29.04 306.29 28.29Q305.93 27.54 305.80 26.49Q305.66 25.43 305.56 24.68Q305.46 23.94 305.42 23.58Q305.39 23.22 305.34 22.83Q305.29 22.44 305.25 22.24Q305.22 22.03 305.18 21.83Q305.15 21.62 305.08 21.44Q305.01 21.25 304.98 21.10Q304.95 20.94 304.83 20.57Q304.71 20.20 304.64 19.92L304.64 19.92Q302.87 21.83 301.61 24.41L301.61 24.41Q301.14 25.40 299.74 28.36L299.74 28.36Q299.44 29.00 298.91 29.00Q298.38 29.00 298.06 28.88Q297.74 28.76 297.40 28.08Q297.06 27.40 296.89 26.04L296.89 26.04Q296.07 19.21 295.32 16.73L295.32 16.73Q296.31 16.46 297.30 16.46L297.30 16.46Q297.47 16.76 297.74 18.33L297.74 18.33Q298.32 21.35 299.20 25.43L299.20 25.43Q300.87 22.24 302.89 19.53Q304.91 16.83 305.56 16.83L305.56 16.83Q306.31 16.83 306.60 17.87Q306.88 18.90 307.11 21.34Q307.33 23.77 307.70 25.40L307.70 25.40Q310.90 19.92 315.01 16.15ZM322.93 14.96L322.93 14.96Q321.03 14.96 321.03 13.43L321.03 13.43Q321.03 12.58 321.50 12.00Q321.98 11.42 322.73 11.42Q323.48 11.42 323.95 11.87Q324.43 12.31 324.43 13.02Q324.43 13.74 324.02 14.35Q323.61 14.96 322.93 14.96ZM322.49 24.99L322.49 24.99L323.17 25.57Q322.35 27.13 321.01 28.24Q319.67 29.34 318.58 29.34L318.58 29.34Q316.68 29.34 316.68 26.69L316.68 26.69Q316.68 23.39 319.40 18.09L319.40 18.09Q320.01 16.93 320.11 16.73L320.11 16.73L321.57 17.61Q320.86 18.90 319.82 21.73Q318.78 24.55 318.78 25.35Q318.78 26.15 319.12 26.49Q319.46 26.83 319.94 26.83L319.94 26.83Q320.86 26.83 322.49 24.99ZM334.63 17.34L334.63 17.34Q335.48 17.34 336.02 17.92Q336.57 18.50 336.57 19.41L336.57 19.41Q336.57 21.25 334.46 23.29L334.46 23.29L333.64 22.64Q334.12 21.59 334.12 21.11L334.12 21.11Q334.12 20.20 333.10 20.20Q332.08 20.20 331.16 21.49Q330.24 22.78 329.00 25.48Q327.76 28.19 327.11 29.31L327.11 29.31L325.18 28.46Q327.05 24.21 327.32 23.46L327.32 23.46Q328.24 20.81 328.24 16.73L328.24 16.73L330.14 16.22Q330.04 18.43 329.83 19.63Q329.63 20.84 328.85 23.56L328.85 23.56Q332.28 17.34 334.63 17.34ZM350.91 25.91L350.91 25.91L351.76 26.66Q349.79 29.89 347.58 29.89L347.58 29.89Q346.22 29.89 344.79 27.88Q343.37 25.87 343.37 24.58L343.37 24.58Q343.37 23.77 345.81 22.95L345.81 22.95Q346.73 22.64 347.50 22.02Q348.26 21.39 348.26 20.71Q348.26 20.03 347.89 19.67Q347.51 19.31 346.94 19.31L346.94 19.31Q343.20 19.65 339.12 29.38L339.12 29.38L337.04 28.66Q337.04 27.20 341.00 16.83Q344.96 6.46 346.63 4.28L346.63 4.28L348.30 4.90Q343.71 12.89 340.61 23.46L340.61 23.46Q343.26 19.48 345.17 18.16Q347.07 16.83 348.81 16.83L348.81 16.83Q349.86 16.83 350.49 17.48Q351.12 18.12 351.12 19.13Q351.12 20.13 350.63 20.94Q350.13 21.76 349.21 22.37L349.21 22.37Q347.89 23.26 345.95 24.11L345.95 24.11Q346.26 25.70 347.00 26.52Q347.75 27.34 348.70 27.34L348.70 27.34Q349.21 27.34 350.91 25.91ZM366.21 25.64L366.21 25.64L366.93 26.21Q366.35 27.64 365.11 28.63Q363.87 29.61 362.87 29.61Q361.86 29.61 361.28 28.92Q360.71 28.22 360.71 27.10Q360.71 25.98 361.08 24.21L361.08 24.21Q359.48 26.72 357.65 28.15Q355.81 29.58 354.55 29.58L354.55 29.58Q352.65 29.58 352.65 26.86L352.65 26.86Q352.65 24.55 354.21 20.94Q355.78 17.34 356.49 16.76L356.49 16.76L358.12 17.48Q356.73 19.72 356.01 21.90Q355.30 24.07 355.30 24.80Q355.30 25.53 355.76 25.98Q356.22 26.42 356.83 26.42L356.83 26.42Q358.19 26.42 360.21 23.92Q362.24 21.42 364.34 16.46L364.34 16.46L366.08 17.24Q366.01 17.51 364.53 21.18Q363.05 24.85 363.05 25.59Q363.05 26.32 363.38 26.69Q363.70 27.06 364.02 27.06Q364.34 27.06 364.51 27.03Q364.68 27.00 364.85 26.89Q365.02 26.79 365.14 26.72Q365.26 26.66 365.43 26.49L365.43 26.49L365.70 26.25Q365.77 26.15 365.96 25.93Q366.15 25.70 366.21 25.64ZM381.79 25.26L381.79 25.26L382.50 25.81Q381.75 27.30 380.44 28.32Q379.13 29.34 378.08 29.34Q377.03 29.34 376.41 28.73Q375.80 28.12 375.80 27.20Q375.80 26.28 376.97 23.99Q378.15 21.69 378.15 20.60L378.15 20.60Q378.15 20.13 377.76 19.74Q377.37 19.35 376.82 19.35L376.82 19.35Q375.09 19.35 373.32 21.98Q371.55 24.62 369.38 29.58L369.38 29.58L367.34 28.87Q367.98 24.92 369.19 21.16Q370.40 17.41 371.42 15.78L371.42 15.78L372.81 16.22Q371.86 18.63 370.40 24.55L370.40 24.55Q375.09 16.52 379.03 16.52L379.03 16.52Q379.88 16.52 380.44 17.10Q381.00 17.68 381.00 18.46Q381.00 19.24 380.80 19.87Q380.60 20.50 379.52 22.80Q378.45 25.09 378.45 25.67Q378.45 26.25 378.79 26.57Q379.13 26.89 379.44 26.89Q379.75 26.89 379.95 26.79Q380.15 26.69 380.41 26.49Q380.66 26.28 380.87 26.11Q381.07 25.94 381.36 25.65Q381.65 25.36 381.79 25.26ZM395.11 29.07L397.97 28.15L398.00 28.97Q397.66 29.17 394.91 30.19L394.91 30.19Q393.82 36.69 391.71 39.58Q389.61 42.47 386.55 42.47L386.55 42.47Q385.12 42.47 384.27 41.55Q383.42 40.63 383.42 39.17L383.42 39.17Q383.42 36.24 386.10 33.71Q388.79 31.18 393.28 29.72L393.28 29.72Q393.79 27.44 395.11 23.29L395.11 23.29Q392.84 26.76 390.98 27.98Q389.13 29.21 387.63 29.21Q386.14 29.21 385.37 28.39Q384.61 27.57 384.61 26.21L384.61 26.21Q384.61 23.97 386.48 21.64Q388.35 19.31 391.19 17.83Q394.03 16.35 396.68 16.35L396.68 16.35L396.95 17.54Q393.18 17.95 390.47 20.20Q387.77 22.44 387.77 24.51L387.77 24.51Q387.77 25.40 388.31 25.98Q388.86 26.55 389.64 26.55L389.64 26.55Q390.80 26.55 393.14 24.11Q395.49 21.66 396.44 19.92L396.44 19.92L397.70 20.64Q395.83 25.64 395.11 29.07L395.11 29.07ZM393.07 30.74L393.07 30.74Q390.12 32.10 388.18 34Q386.24 35.90 386.24 37.47L386.24 37.47Q386.24 38.28 386.72 38.79Q387.19 39.30 387.91 39.30L387.91 39.30Q389.33 39.30 390.73 37.30Q392.12 35.29 393.07 30.74Z" transform="translate(0, 0)"/></g></svg> <svg y="349.0878677368164" viewBox="5.381641864776611 19.600000381469727 169.11085510253906 56.13426208496094" x="202.94457244873047" height="56.13426208496094" width="169.11085510253906" style="overflow: visible;"><g fill="#ffffff" style=""><path d="M8.05 71.19L8.05 71.19Q7.21 71.19 6.65 70.28L6.65 70.28Q6.23 69.86 5.74 68.95Q5.25 68.04 5.43 65.98Q5.60 63.91 6.93 59.92L6.93 59.92Q7.63 57.26 8.05 56.04Q8.47 54.81 8.47 54.25L8.47 54.25Q8.47 53.48 8.65 52.95Q8.82 52.43 8.82 51.94L8.82 51.94Q9.24 51.94 9.66 51.17Q10.08 50.40 10.36 49.07L10.36 49.07Q10.64 47.88 10.89 47.14Q11.13 46.41 11.13 46.13L11.13 46.13Q11.48 45.57 11.87 44.38Q12.25 43.19 13.09 41.51L13.09 41.51Q13.65 39.41 14.35 37.14Q15.05 34.86 15.79 32.87Q16.52 30.87 17.01 29.75L17.01 29.75Q17.78 27.58 18.20 26.70Q18.62 25.83 18.20 25.55L18.20 25.55Q17.71 25.20 17.75 23.77Q17.78 22.33 19.04 21.28L19.04 21.28Q19.81 20.37 21.00 19.98Q22.19 19.60 23.73 19.60Q25.27 19.60 26.95 19.74L26.95 19.74Q28.21 19.81 29.65 19.81Q31.08 19.81 31.43 19.81L31.43 19.81Q32.06 20.09 32.97 20.44Q33.88 20.79 34.62 21.10Q35.35 21.42 35.35 21.63L35.35 21.63Q35.35 22.05 35.67 22.16Q35.98 22.26 36.33 22.33L36.33 22.33Q36.82 22.33 37.94 23.20Q39.06 24.08 40.22 25.30Q41.37 26.53 41.86 27.72L41.86 27.72Q42.42 28.91 42.81 29.96Q43.19 31.01 42.84 32.97L42.84 32.97Q42.77 34.02 42.53 35.07Q42.28 36.12 42.00 36.47L42.00 36.47Q41.58 36.75 41.23 37.17Q40.88 37.59 40.88 37.94L40.88 37.94Q40.88 38.22 40.32 39.30Q39.76 40.39 38.92 41.75Q38.08 43.12 37.10 44.45Q36.12 45.78 35.28 46.55L35.28 46.55Q34.37 47.67 33.15 48.65Q31.92 49.63 30.94 50.26L30.94 50.26Q29.12 51.10 26.78 51.87Q24.43 52.64 22.26 53.09Q20.09 53.55 18.76 53.48L18.76 53.48Q16.73 53.76 16.10 54.01Q15.47 54.25 15.19 55.23L15.19 55.23Q14.84 56.14 14.53 57.12Q14.21 58.10 14.21 58.52L14.21 58.52Q14.07 58.80 13.62 60.06Q13.16 61.32 12.57 63Q11.97 64.68 11.48 66.36Q10.99 68.04 10.71 69.23L10.71 69.23Q10.43 70.21 9.56 70.70Q8.68 71.19 8.05 71.19ZM17.99 47.81L17.99 47.81Q18.27 48.09 19.81 47.88Q21.35 47.67 23.52 46.83L23.52 46.83Q24.92 46.34 26.36 45.64Q27.79 44.94 29.12 44.10L29.12 44.10Q29.82 43.61 30.59 42.88Q31.36 42.14 32.76 40.39L32.76 40.39Q32.97 40.04 33.50 39.02Q34.02 38.01 34.44 37.10L34.44 37.10Q35.07 36.12 35.70 34.20Q36.33 32.27 35.98 31.01L35.98 31.01Q35.63 29.19 34.58 27.96Q33.53 26.74 31.92 26.18L31.92 26.18Q30.38 25.90 29.37 25.83Q28.35 25.76 27.16 25.97L27.16 25.97Q26.04 26.32 25.59 26.95Q25.13 27.58 24.29 29.61L24.29 29.61Q23.80 30.59 22.89 32.30Q21.98 34.02 21.35 35.77L21.35 35.77Q20.09 40.39 19.15 42.84Q18.20 45.29 17.92 46.06L17.92 46.06Q17.99 46.83 17.85 47.14Q17.71 47.46 17.99 47.81ZM43.68 75.67L43.68 75.67Q43.26 75.95 41.79 75.01Q40.32 74.06 39.34 72.94L39.34 72.94Q38.85 72.38 38.71 71.75Q38.57 71.12 38.78 69.37L38.78 69.37Q39.06 68.60 39.10 67.90Q39.13 67.20 39.13 66.92L39.13 66.92Q39.13 66.50 39.38 64.96Q39.62 63.42 39.90 61.71Q40.18 59.99 40.39 59.08L40.39 59.08Q40.39 59.01 40.50 58.59Q40.60 58.17 40.67 57.96L40.67 57.96Q40.81 57.33 41.02 56.42Q41.23 55.51 41.44 53.97L41.44 53.97Q42.00 52.22 42.39 50.51Q42.77 48.79 42.77 48.16L42.77 48.16Q42.77 46.90 43.75 46.34L43.75 46.34Q43.82 45.99 44.17 45.25Q44.52 44.52 44.80 44.03L44.80 44.03Q46.20 40.04 47.11 37.66Q48.02 35.28 49.00 33.53L49.00 33.53Q49.42 32.34 49.95 31.08Q50.47 29.82 51.03 29.12L51.03 29.12Q51.52 28.14 52.75 26.70Q53.97 25.27 55.37 23.94Q56.77 22.61 57.61 21.98L57.61 21.98Q59.15 21.21 60.48 20.72Q61.81 20.23 63.28 20.23L63.28 20.23Q64.61 20.23 65.63 20.82Q66.64 21.42 68.67 23.24L68.67 23.24Q69.37 24.15 69.37 24.99Q69.37 25.83 69.02 26.39L69.02 26.39Q68.53 27.51 67.55 29.16Q66.57 30.80 65.66 32.09Q64.75 33.39 64.33 33.46L64.33 33.46Q63.49 33.95 62.58 33.74Q61.67 33.53 61.67 32.48L61.67 32.48Q61.67 31.99 61.71 31.57Q61.74 31.15 61.74 31.15L61.74 31.15Q61.95 30.24 62.27 29.54Q62.58 28.84 62.86 28.35L62.86 28.35Q63.42 27.44 63.18 26.60Q62.93 25.76 61.39 25.90L61.39 25.90Q61.18 26.04 60.59 26.56Q59.99 27.09 59.33 27.76Q58.66 28.42 58.17 29.02Q57.68 29.61 57.68 29.82L57.68 29.82Q57.68 29.82 57.30 30.55Q56.91 31.29 56.14 32.20L56.14 32.20Q55.65 32.90 55.30 33.53Q54.95 34.16 54.95 34.51L54.95 34.51Q54.95 34.79 54.88 35Q54.81 35.21 54.53 35.21L54.53 35.21Q54.53 35.21 54.29 35.91Q54.04 36.61 53.48 37.59L53.48 37.59Q53.20 38.29 52.89 38.89Q52.57 39.48 52.29 39.76L52.29 39.76L52.22 39.90Q52.22 39.90 51.91 40.70Q51.59 41.51 51.24 42.35Q50.89 43.19 50.89 43.33L50.89 43.33Q50.89 43.61 51.73 43.61Q52.57 43.61 53.76 43.37Q54.95 43.12 56.07 42.84L56.07 42.84Q57.05 42.56 57.47 42.56Q57.89 42.56 58.80 42.84L58.80 42.84Q59.36 43.19 59.71 44.06Q60.06 44.94 60.24 45.81Q60.41 46.69 60.27 47.11L60.27 47.11Q60.20 47.39 58.70 47.88Q57.19 48.37 55.72 48.65L55.72 48.65Q54.46 48.93 52.89 49.25Q51.31 49.56 50.12 49.88Q48.93 50.19 48.86 50.47L48.86 50.47Q48.58 50.47 48.41 50.82Q48.23 51.17 48.23 51.45L48.23 51.45Q48.23 52.36 47.88 52.92L47.88 52.92Q47.74 53.34 47.43 54.64Q47.11 55.93 46.80 57.44Q46.48 58.94 46.24 60.23Q45.99 61.53 45.99 61.95L45.99 61.95Q45.57 62.44 45.50 63.18Q45.43 63.91 45.43 64.47L45.43 64.47Q45.15 65.03 45.08 65.48Q45.01 65.94 45.01 66.22L45.01 66.22Q45.01 66.29 45.01 66.50Q45.01 66.71 44.94 66.92L44.94 66.92Q44.87 67.62 44.77 68.78Q44.66 69.93 44.66 71.05L44.66 71.05L44.45 73.08Q44.38 73.99 44.21 74.66Q44.03 75.32 43.68 75.67ZM62.44 65.73L62.44 65.73Q62.16 65.17 61.22 64.61Q60.27 64.05 60.27 63.77L60.27 63.77Q60.27 63.49 59.96 62.90Q59.64 62.30 59.36 62.02L59.36 62.02Q59.01 61.60 59.57 59.95Q60.13 58.31 61.25 55.93Q62.37 53.55 63.70 51.10L63.70 51.10Q64.26 50.54 64.82 49.63Q65.38 48.72 65.66 48.44L65.66 48.44Q65.66 48.16 65.87 47.92Q66.08 47.67 66.36 47.67L66.36 47.67L66.92 46.55Q67.06 46.27 67.80 45.43Q68.53 44.59 69.58 43.58Q70.63 42.56 71.72 41.65Q72.80 40.74 73.50 40.32L73.50 40.32Q74.97 39.34 76.55 39.41Q78.12 39.48 79.24 40.39L79.24 40.39Q79.45 40.60 80.19 41.23Q80.92 41.86 81.87 42.63Q82.81 43.40 83.51 44.03L83.51 44.03L86.10 46.34L84.91 49.84Q84 52.64 84.46 54.74Q84.91 56.84 85.75 58.38L85.75 58.38Q86.10 59.15 86.70 59.57Q87.29 59.99 88.27 60.13L88.27 60.13Q88.83 60.20 89.32 60.55Q89.81 60.90 89.81 61.67L89.81 61.67Q89.81 63.35 89.22 64.09Q88.62 64.82 87.92 64.96L87.92 64.96Q85.61 65.24 83.51 64.47Q81.41 63.70 79.73 60.48L79.73 60.48Q79.45 60.06 79.00 58.91Q78.54 57.75 78.47 57.40L78.47 57.40Q78.19 57.75 77.74 58.28Q77.28 58.80 76.86 59.22L76.86 59.22Q71.89 64.26 68.36 65.77Q64.82 67.27 62.44 65.73ZM66.29 59.92L66.29 59.92Q66.78 59.99 67.83 59.40Q68.88 58.80 70.63 57.40L70.63 57.40Q73.01 55.37 74.55 54.04Q76.09 52.71 77.56 50.61L77.56 50.61L79.10 48.09Q78.40 46.48 77.84 45.99Q77.28 45.50 76.72 45.50L76.72 45.50Q75.81 45.50 74.55 46.66Q73.29 47.81 71.72 50.02Q70.14 52.22 68.18 55.51L68.18 55.51Q67.27 57.05 66.78 58.48Q66.29 59.92 66.29 59.92ZM115.99 65.52L115.99 65.52Q114.45 65.38 113.44 64.86Q112.42 64.33 111.79 62.72L111.79 62.72Q111.51 61.60 111.55 60.38Q111.58 59.15 111.72 58.00Q111.86 56.84 111.86 56L111.86 56Q111.86 55.86 111.86 55.44Q111.86 55.02 111.86 54.67L111.86 54.67Q111.72 53.62 111.34 53.38Q110.95 53.13 110.04 53.48L110.04 53.48Q108.57 54.18 106.86 55.34Q105.14 56.49 103.29 58.00Q101.43 59.50 99.47 61.18L99.47 61.18Q97.93 62.86 97.20 63.91Q96.46 64.96 95.69 64.96L95.69 64.96Q95.13 65.24 94.50 64.82Q93.87 64.40 93.17 63.84L93.17 63.84Q92.68 63.28 92.02 62.41Q91.35 61.53 91.21 61.25L91.21 61.25Q91.21 60.13 91.39 59.22Q91.56 58.31 91.95 57.33Q92.33 56.35 92.89 55.09L92.89 55.09Q93.17 54.60 93.42 54.08Q93.66 53.55 94.01 52.92L94.01 52.92Q94.29 51.94 94.81 50.68Q95.34 49.42 95.83 48.30L95.83 48.30Q96.60 46.48 97.02 45.15Q97.44 43.82 97.72 42.28L97.72 42.28Q97.65 42.14 97.79 41.86Q97.93 41.58 98.21 41.51L98.21 41.51L98.28 41.51L98.35 41.51Q98.84 41.16 100.21 41.41Q101.57 41.65 102.27 42.21L102.27 42.21Q103.74 43.47 103.67 45.50Q103.60 47.53 101.57 50.82L101.57 50.82Q101.08 51.94 100.56 52.89Q100.03 53.83 100.03 54.18L100.03 54.18Q100.03 54.18 100.59 53.76Q101.15 53.34 101.92 52.75Q102.69 52.15 103.25 51.80L103.25 51.80Q103.60 51.45 104.79 50.51Q105.98 49.56 107.38 48.51Q108.78 47.46 109.62 46.90L109.62 46.90Q110.39 46.34 111.58 45.75Q112.77 45.15 113.05 45.15L113.05 45.15Q113.75 45.15 114.77 45.64Q115.78 46.13 116.66 46.80Q117.53 47.46 117.67 48.02L117.67 48.02Q117.67 48.30 117.60 48.76Q117.53 49.21 117.53 49.56L117.53 49.56Q117.46 50.68 117.50 52.26Q117.53 53.83 117.53 55.41Q117.53 56.98 117.25 58.24L117.25 58.24Q117.25 58.24 117.32 58.34Q117.39 58.45 117.46 58.66L117.46 58.66Q117.39 58.73 117.43 58.91Q117.46 59.08 117.46 59.08L117.46 59.08Q117.60 59.57 117.78 60.06Q117.95 60.55 118.23 61.15Q118.51 61.74 118.86 62.65L118.86 62.65Q118.79 63.56 117.84 64.44Q116.90 65.31 115.99 65.52ZM143.29 68.53L143.29 68.53Q142.38 68.74 141.51 68.08Q140.63 67.41 140.28 66.64L140.28 66.64Q139.86 65.52 139.76 64.50Q139.65 63.49 139.58 62.16L139.58 62.16L139.51 59.78L136.64 62.37Q134.26 64.61 132.20 65.56Q130.13 66.50 128.45 66.50L128.45 66.50Q127.68 66.36 126.60 65.48Q125.51 64.61 124.64 63.53Q123.76 62.44 123.41 61.74L123.41 61.74Q122.99 60.76 123.17 59.01Q123.34 57.26 124.01 55.16Q124.67 53.06 125.69 51.03Q126.70 49 128.03 47.53L128.03 47.53Q130.34 44.03 133.77 43.16Q137.20 42.28 139.86 43.75L139.86 43.75Q141.12 44.38 141.68 44.24Q142.24 44.10 142.38 43.33L142.38 43.33Q142.66 42.21 143.01 41.23Q143.36 40.25 143.99 38.29L143.99 38.29Q145.74 32.97 147.04 29.96Q148.33 26.95 149.38 24.71L149.38 24.71Q150.15 23.10 150.92 22.47Q151.69 21.84 152.25 21.91L152.25 21.91Q153.02 21.91 154.18 22.47Q155.33 23.03 155.68 24.01L155.68 24.01Q155.96 24.64 155.93 25.34Q155.89 26.04 155.47 26.81L155.47 26.81Q154.56 28.49 153.34 31.26Q152.11 34.02 150.89 37.31Q149.66 40.60 148.61 43.82Q147.56 47.04 146.86 49.49L146.86 49.49Q146.44 51.03 146.20 53.41Q145.95 55.79 145.85 58.28Q145.74 60.76 145.81 62.69Q145.88 64.61 146.02 65.17L146.02 65.17Q146.44 66.57 146.02 67.27Q145.60 67.97 144.83 68.22Q144.06 68.46 143.29 68.53ZM131.74 60.06L131.74 60.06Q132.72 59.71 133.49 59.22Q134.26 58.73 135.31 57.96L135.31 57.96Q137.41 56.35 138.36 55.16Q139.30 53.97 139.86 52.22L139.86 52.22Q140.21 51.17 139.90 50.40Q139.58 49.63 138.81 48.93L138.81 48.93Q138.04 48.30 136.85 48.41Q135.66 48.51 134.12 49.91L134.12 49.91Q132.44 51.45 131.25 53.48Q130.06 55.51 129.29 59.29L129.29 59.29Q129.15 59.99 129.78 60.27Q130.41 60.55 131.74 60.06ZM157.01 66.71L157.01 66.71Q156.10 66.71 155.58 66.36Q155.05 66.01 154.28 65.38L154.28 65.38Q152.95 63.98 152.15 62.37Q151.34 60.76 151.55 59.57L151.55 59.57Q151.76 59.01 151.73 58.48Q151.69 57.96 151.69 57.96L151.69 57.96Q151.34 57.61 151.48 57.51Q151.62 57.40 151.76 57.12L151.76 57.12Q152.18 57.12 152.04 56.35L152.04 56.35Q151.90 55.79 152.50 53.94Q153.09 52.08 154.14 50.40L154.14 50.40Q154.56 49.70 155.40 48.55Q156.24 47.39 157.26 46.23Q158.27 45.08 159.11 44.38L159.11 44.38Q160.86 42.91 162.37 42Q163.87 41.09 165.41 40.74L165.41 40.74Q166.95 40.39 168.60 40.39Q170.24 40.39 171.29 41.51L171.29 41.51Q172.90 42.21 173.57 43.40Q174.23 44.59 174.44 46.48L174.44 46.48Q174.65 48.58 174.02 51.63Q173.39 54.67 170.59 58.66L170.59 58.66Q168.84 61.18 167.16 62.58Q165.48 63.98 163.45 65.17L163.45 65.17Q161.98 66.15 160.30 66.36Q158.62 66.57 157.01 66.71ZM164.15 58.17L164.15 58.17Q165.69 56.84 166.36 55.23Q167.02 53.62 167.79 51.45L167.79 51.45Q168.07 51.03 168.18 50.05Q168.28 49.07 168.21 48.13Q168.14 47.18 167.72 47.04L167.72 47.04Q167.09 46.55 166.46 46.80Q165.83 47.04 164.85 47.74L164.85 47.74Q162.75 49.49 160.97 51.77Q159.18 54.04 158.48 57.33L158.48 57.33Q158.27 59.08 158.87 59.95Q159.46 60.83 160.83 60.45Q162.19 60.06 164.15 58.17Z" transform="translate(0, 0)"/></g></svg></svg>